<mxfile host="app.diagrams.net" modified="2023-02-22T16:39:40.201Z" agent="5.0 (Macintosh; Intel Mac OS X 10_15_7) AppleWebKit/537.36 (KHTML, like Gecko) Chrome/109.0.0.0 Safari/537.36" etag="RrhTCkpTdPuuD0jhqh2t" version="20.8.22" type="github">
  <diagram name="Page-1" id="XA8HvyzHDL7I8CbjPbPj">
    <mxGraphModel dx="5487" dy="4813" grid="1" gridSize="10" guides="1" tooltips="1" connect="1" arrows="1" fold="1" page="1" pageScale="1" pageWidth="850" pageHeight="1100" math="0" shadow="0">
      <root>
        <mxCell id="0" />
        <mxCell id="1" parent="0" />
        <mxCell id="j3vUem2WTc4PH7kpGtTu-9" style="edgeStyle=orthogonalEdgeStyle;rounded=0;orthogonalLoop=1;jettySize=auto;html=1;exitX=0;exitY=0.25;exitDx=0;exitDy=0;entryX=0.466;entryY=-0.025;entryDx=0;entryDy=0;entryPerimeter=0;" parent="1" target="j3vUem2WTc4PH7kpGtTu-8" edge="1">
          <mxGeometry relative="1" as="geometry">
            <mxPoint x="254.81999999999994" y="-698.9300000000001" as="sourcePoint" />
          </mxGeometry>
        </mxCell>
        <mxCell id="j3vUem2WTc4PH7kpGtTu-12" style="edgeStyle=orthogonalEdgeStyle;rounded=0;orthogonalLoop=1;jettySize=auto;html=1;entryX=0.424;entryY=-0.037;entryDx=0;entryDy=0;entryPerimeter=0;fillColor=#dae8fc;strokeColor=#6c8ebf;startArrow=none;exitX=0.588;exitY=1.063;exitDx=0;exitDy=0;exitPerimeter=0;" parent="1" source="j3vUem2WTc4PH7kpGtTu-3" target="j3vUem2WTc4PH7kpGtTu-4" edge="1">
          <mxGeometry relative="1" as="geometry">
            <mxPoint x="605" y="-470" as="sourcePoint" />
          </mxGeometry>
        </mxCell>
        <mxCell id="j3vUem2WTc4PH7kpGtTu-13" style="edgeStyle=orthogonalEdgeStyle;rounded=0;orthogonalLoop=1;jettySize=auto;html=1;exitX=1;exitY=0.5;exitDx=0;exitDy=0;entryX=0.989;entryY=0.952;entryDx=0;entryDy=0;entryPerimeter=0;fillColor=#dae8fc;strokeColor=#6c8ebf;" parent="1" source="j3vUem2WTc4PH7kpGtTu-3" target="j3vUem2WTc4PH7kpGtTu-5" edge="1">
          <mxGeometry relative="1" as="geometry" />
        </mxCell>
        <mxCell id="j3vUem2WTc4PH7kpGtTu-14" style="edgeStyle=orthogonalEdgeStyle;rounded=0;orthogonalLoop=1;jettySize=auto;html=1;exitX=0;exitY=0.5;exitDx=0;exitDy=0;fillColor=#dae8fc;strokeColor=#6c8ebf;" parent="1" source="j3vUem2WTc4PH7kpGtTu-3" edge="1">
          <mxGeometry relative="1" as="geometry">
            <mxPoint x="630" y="-640" as="targetPoint" />
          </mxGeometry>
        </mxCell>
        <mxCell id="j3vUem2WTc4PH7kpGtTu-17" style="edgeStyle=orthogonalEdgeStyle;rounded=0;orthogonalLoop=1;jettySize=auto;html=1;exitX=0.5;exitY=0;exitDx=0;exitDy=0;entryX=0.003;entryY=0.928;entryDx=0;entryDy=0;entryPerimeter=0;" parent="1" source="j3vUem2WTc4PH7kpGtTu-3" edge="1">
          <mxGeometry relative="1" as="geometry">
            <mxPoint x="726.03" y="-700.1214200000002" as="targetPoint" />
          </mxGeometry>
        </mxCell>
        <mxCell id="j3vUem2WTc4PH7kpGtTu-3" value="" style="image;html=1;image=img/lib/clip_art/networking/Router_128x128.png;direction=east;" parent="1" vertex="1">
          <mxGeometry x="690" y="-680" width="80" height="80" as="geometry" />
        </mxCell>
        <mxCell id="j3vUem2WTc4PH7kpGtTu-4" value="" style="points=[];aspect=fixed;html=1;align=center;shadow=0;dashed=0;image;image=img/lib/allied_telesis/media_converters/Media_Converter_Modular.svg;" parent="1" vertex="1">
          <mxGeometry x="695" y="-520" width="70.8" height="54.6" as="geometry" />
        </mxCell>
        <mxCell id="j3vUem2WTc4PH7kpGtTu-5" value="" style="points=[];aspect=fixed;html=1;align=center;shadow=0;dashed=0;image;image=img/lib/allied_telesis/media_converters/Media_Converter_Modular.svg;" parent="1" vertex="1">
          <mxGeometry x="700" y="-410" width="70.8" height="54.6" as="geometry" />
        </mxCell>
        <mxCell id="j3vUem2WTc4PH7kpGtTu-11" style="edgeStyle=orthogonalEdgeStyle;rounded=0;orthogonalLoop=1;jettySize=auto;html=1;entryX=0.003;entryY=0.761;entryDx=0;entryDy=0;entryPerimeter=0;" parent="1" source="j3vUem2WTc4PH7kpGtTu-6" edge="1">
          <mxGeometry relative="1" as="geometry">
            <mxPoint x="609.9649999999999" y="-700.1214200000002" as="targetPoint" />
          </mxGeometry>
        </mxCell>
        <mxCell id="j3vUem2WTc4PH7kpGtTu-15" style="edgeStyle=orthogonalEdgeStyle;rounded=0;orthogonalLoop=1;jettySize=auto;html=1;fillColor=#f8cecc;strokeColor=#b85450;startArrow=none;" parent="1" source="j3vUem2WTc4PH7kpGtTu-29" target="j3vUem2WTc4PH7kpGtTu-7" edge="1">
          <mxGeometry relative="1" as="geometry">
            <Array as="points" />
          </mxGeometry>
        </mxCell>
        <mxCell id="j3vUem2WTc4PH7kpGtTu-6" value="" style="points=[];aspect=fixed;html=1;align=center;shadow=0;dashed=0;image;image=img/lib/allied_telesis/security/Router_VPN.svg;" parent="1" vertex="1">
          <mxGeometry x="572" y="-659" width="55.800000000000004" height="39.6" as="geometry" />
        </mxCell>
        <mxCell id="j3vUem2WTc4PH7kpGtTu-10" style="edgeStyle=orthogonalEdgeStyle;rounded=0;orthogonalLoop=1;jettySize=auto;html=1;entryX=0.003;entryY=0.56;entryDx=0;entryDy=0;entryPerimeter=0;" parent="1" source="j3vUem2WTc4PH7kpGtTu-7" edge="1">
          <mxGeometry relative="1" as="geometry">
            <mxPoint x="470.27" y="-700.1214200000002" as="targetPoint" />
          </mxGeometry>
        </mxCell>
        <mxCell id="j3vUem2WTc4PH7kpGtTu-16" style="edgeStyle=orthogonalEdgeStyle;rounded=0;orthogonalLoop=1;jettySize=auto;html=1;fillColor=#f8cecc;strokeColor=#b85450;startArrow=none;" parent="1" source="j3vUem2WTc4PH7kpGtTu-26" target="j3vUem2WTc4PH7kpGtTu-8" edge="1">
          <mxGeometry relative="1" as="geometry" />
        </mxCell>
        <mxCell id="j3vUem2WTc4PH7kpGtTu-7" value="" style="points=[];aspect=fixed;html=1;align=center;shadow=0;dashed=0;image;image=img/lib/allied_telesis/security/Router_VPN.svg;" parent="1" vertex="1">
          <mxGeometry x="340" y="-605.2" width="55.800000000000004" height="39.6" as="geometry" />
        </mxCell>
        <mxCell id="j3vUem2WTc4PH7kpGtTu-8" value="" style="points=[];aspect=fixed;html=1;align=center;shadow=0;dashed=0;image;image=img/lib/allied_telesis/security/Router_VPN.svg;" parent="1" vertex="1">
          <mxGeometry x="100" y="-600" width="55.800000000000004" height="39.6" as="geometry" />
        </mxCell>
        <mxCell id="j3vUem2WTc4PH7kpGtTu-18" value="32 Ch NVR" style="text;strokeColor=none;align=center;fillColor=none;html=1;verticalAlign=middle;whiteSpace=wrap;rounded=0;" parent="1" vertex="1">
          <mxGeometry x="690" y="-465.4" width="80" height="30" as="geometry" />
        </mxCell>
        <mxCell id="j3vUem2WTc4PH7kpGtTu-19" value="32 Ch NVR" style="text;strokeColor=none;align=center;fillColor=none;html=1;verticalAlign=middle;whiteSpace=wrap;rounded=0;" parent="1" vertex="1">
          <mxGeometry x="690.8" y="-340" width="80" height="30" as="geometry" />
        </mxCell>
        <mxCell id="j3vUem2WTc4PH7kpGtTu-20" value="16 Port POE" style="text;strokeColor=none;align=center;fillColor=none;html=1;verticalAlign=middle;whiteSpace=wrap;rounded=0;" parent="1" vertex="1">
          <mxGeometry x="559.9" y="-600" width="80" height="30" as="geometry" />
        </mxCell>
        <mxCell id="j3vUem2WTc4PH7kpGtTu-21" value="16 Port POE" style="text;strokeColor=none;align=center;fillColor=none;html=1;verticalAlign=middle;whiteSpace=wrap;rounded=0;" parent="1" vertex="1">
          <mxGeometry x="330" y="-555.2" width="80" height="30" as="geometry" />
        </mxCell>
        <mxCell id="j3vUem2WTc4PH7kpGtTu-22" value="24 Port POE" style="text;strokeColor=none;align=center;fillColor=none;html=1;verticalAlign=middle;whiteSpace=wrap;rounded=0;" parent="1" vertex="1">
          <mxGeometry x="89.99999999999997" y="-550" width="80" height="30" as="geometry" />
        </mxCell>
        <mxCell id="j3vUem2WTc4PH7kpGtTu-23" value="Gigabit Router" style="text;strokeColor=none;align=center;fillColor=none;html=1;verticalAlign=middle;whiteSpace=wrap;rounded=0;" parent="1" vertex="1">
          <mxGeometry x="760" y="-689" width="60" height="30" as="geometry" />
        </mxCell>
        <mxCell id="j3vUem2WTc4PH7kpGtTu-25" value="" style="shape=image;verticalLabelPosition=bottom;labelBackgroundColor=default;verticalAlign=top;aspect=fixed;imageAspect=0;image=https://media.startech.com/cms/products/gallery_large/sfp10glrst.main.jpg;" parent="1" vertex="1">
          <mxGeometry x="170" y="-605.2" width="50" height="50" as="geometry" />
        </mxCell>
        <mxCell id="j3vUem2WTc4PH7kpGtTu-27" value="" style="edgeStyle=orthogonalEdgeStyle;rounded=0;orthogonalLoop=1;jettySize=auto;html=1;fillColor=#f8cecc;strokeColor=#b85450;endArrow=none;" parent="1" source="j3vUem2WTc4PH7kpGtTu-7" target="j3vUem2WTc4PH7kpGtTu-26" edge="1">
          <mxGeometry relative="1" as="geometry">
            <mxPoint x="375" y="-590.2" as="sourcePoint" />
            <mxPoint x="155.79999999999995" y="-580.2" as="targetPoint" />
          </mxGeometry>
        </mxCell>
        <mxCell id="j3vUem2WTc4PH7kpGtTu-26" value="" style="shape=image;verticalLabelPosition=bottom;labelBackgroundColor=default;verticalAlign=top;aspect=fixed;imageAspect=0;image=https://media.startech.com/cms/products/gallery_large/sfp10glrst.main.jpg;" parent="1" vertex="1">
          <mxGeometry x="270" y="-610.4000000000001" width="50" height="50" as="geometry" />
        </mxCell>
        <mxCell id="j3vUem2WTc4PH7kpGtTu-28" value="" style="shape=image;verticalLabelPosition=bottom;labelBackgroundColor=default;verticalAlign=top;aspect=fixed;imageAspect=0;image=https://media.startech.com/cms/products/gallery_large/sfp10glrst.main.jpg;" parent="1" vertex="1">
          <mxGeometry x="395.8" y="-645.2" width="50" height="50" as="geometry" />
        </mxCell>
        <mxCell id="j3vUem2WTc4PH7kpGtTu-30" value="" style="edgeStyle=orthogonalEdgeStyle;rounded=0;orthogonalLoop=1;jettySize=auto;html=1;fillColor=#f8cecc;strokeColor=#b85450;endArrow=none;" parent="1" source="j3vUem2WTc4PH7kpGtTu-6" target="j3vUem2WTc4PH7kpGtTu-29" edge="1">
          <mxGeometry relative="1" as="geometry">
            <mxPoint x="572" y="-639.2" as="sourcePoint" />
            <mxPoint x="367.9000000000001" y="-605.2" as="targetPoint" />
            <Array as="points">
              <mxPoint x="530" y="-639" />
              <mxPoint x="530" y="-630" />
            </Array>
          </mxGeometry>
        </mxCell>
        <mxCell id="j3vUem2WTc4PH7kpGtTu-29" value="" style="shape=image;verticalLabelPosition=bottom;labelBackgroundColor=default;verticalAlign=top;aspect=fixed;imageAspect=0;image=https://media.startech.com/cms/products/gallery_large/sfp10glrst.main.jpg;" parent="1" vertex="1">
          <mxGeometry x="509.9" y="-659" width="50" height="50" as="geometry" />
        </mxCell>
        <mxCell id="j3vUem2WTc4PH7kpGtTu-31" value="Blue Indicates Cat6&lt;br&gt;&lt;br&gt;Red Indicates Fiber" style="text;strokeColor=none;align=center;fillColor=none;html=1;verticalAlign=middle;whiteSpace=wrap;rounded=0;" parent="1" vertex="1">
          <mxGeometry x="459.9" y="-495.4" width="180" height="30" as="geometry" />
        </mxCell>
        <mxCell id="7QTMI1wy1ovJoe2GY0mz-1" value="" style="shape=image;verticalLabelPosition=bottom;labelBackgroundColor=default;verticalAlign=top;aspect=fixed;imageAspect=0;image=data:image/png,iVBORw0KGgoAAAANSUhEUgAAAggAAAGSCAYAAACG6TnbAAAAAXNSR0IArs4c6QAAIABJREFUeF7s3Qm8fdd4N/CTt29fLX1bUxNDhJhKQgwxFal5KBISQwhiaBJCKiJqiISEkoGYah4iYgpFTBWESKmhpCSRBEFNCUpQFO2rlffzXelzu/77v/fZ4zl3n3v3+nzu5957zh7WetZaz/N7xrXNJZdccslsahMFJgpMFJgoMFFgosBEgYwC20wAYVoPEwUmCkwUmCgwUWCiQJECE0CY1sREgYkCEwUmCkwUmCiwFQUmgDAtiokCEwUmCkwUmCgwUWACCNMamCgwUWCiwESBiQITBeopMFkQ6mk0XTFRYKLARIGJAhMFNh0FJoCw6aZ8GvBEgYkCEwUmCkwUqKfABBDqaTRdMVFgosBEgYkCEwU2HQUmgLDppnwa8ESBiQITBSYKTBSop8AEEOppNF0xAgr8v//3/2af+MQnZttss03qzXbbbTe74Q1vmP7/X//rf42gh1MXJgpMFJgosLEoMAGEjTWfG3Y0v/3tb2e/+7u/m0CB4p8Aw7e//e3ZC1/4wtmBBx44+53f+Z1Rj/1LX/rSbNddd5398Ic/nF3+8pdPfTWGpz/96bMPfehDszPOOGP2x3/8x6Mew9S5iQITBTYXBSaAsLnme2VHCyD87//9v2f/+Z//mSwGv/jFL2avf/3rZ8961rNmP/7xj9N3Y27nnXfe7KY3vensrW996+yBD3zg7L/+679mBx98cBrDZz/72dkuu+yyZh0Z8zimvk0UmCiweSgwAYTNM9crPVICFQgAFMLNACz8/u///uzf//3fkwWBZcHP2WefPfva176Wxvsnf/Insxvd6EZrFgbfn3LKKbM73vGOSUj/wz/8w2y33XabXfnKV1579ne+853ZV77yldl1rnOd9KPFO93/y1/+cvYHf/AH6X7v/tWvfpXuz68rEvvLX/7y7MY3vnG6liWEu+TP//zPZ6eeemp6f7hJ8vHFM7wzvo8xFt0qZffpcxy1Ev1f6UUwdX6iwESBpVJgAghLJff0sq4UIIz/z//5P8mCkAMEgprQJTB9d/vb33527rnnJvM94fh7v/d7s9e+9rVJawciAlR88IMfnD3kIQ9JlghWiMMOOywJ/Ktf/eqz//iP/5j9+te/ToDkcpe73Oyiiy5as1C45ipXucrsu9/97uwBD3jA7B//8R/TfQ9/+MNnL37xiyutAOeff/5s5513TtcS5le4whVmb3rTm2Z77LHHFjEU+v3Upz519pa3vCVdd5nLXGbGPeF6bZ999knXv/nNb97iXdwTH/nIR2Y3uclN0n177bXX7NOf/nS65zOf+czsete7XlfST/dNFJgosEkpMAGETTrxqzZsQv/mN795EuY77LDD7IILLpi99KUvnT3iEY+YvehFL1oT/q94xStme++99+xKV7pSGuKRRx45O+aYYxJgIFiBBkADWHjBC14wu+td75o+v/a1r52E7xe+8IX0+X3uc5/Z17/+9dkjH/nIBAZYGnbcccd0P+Cw0047pWse//jHz97znvfMDjnkkNnHPvax2Z/92Z+Vkvacc85J/ddvv1kw3Jc34OWxj33s7Kc//ensvve9b4pJ4JI4+eSTZ6effnoCP9558cUXzz7+8Y/PLnvZy6bbAQjP/PznPz+71rWuNdt2222TdWLfffedsVxc8YpXnB1wwAGjd8Osx5oEnq5xjWvMtt9++/V4/fTOiQKjpsAEEEY9PVPnggJHHXXUzM/Vrna1pCET8Ez9t771rWfvfOc7k6Zf1giA2972tmvugzDXH3fccbMnPelJa64HIAAAIJAf9KAHrT2Kq4Fr4O///u/Tc9zPRcBi8IY3vCFdxyqw++67J02dcC9rLAjiDAhrMROCFQPExPUCFe95z3vO3v/+98/udre7pY8BG/c885nPnB166KHJAvJ//+//nYlp4P4AbvQFAPnUpz6VfoADLgyAYmrzKcD69MlPfjLRe8qGmVbLRIEtKTABhGlFrAQFgINnP/vZs9/85jdrlgBCkZZ8gxvcYPa2t70tmdyBh+OPPz6Z/v39s5/9LGUIEOLhkycImONZD8Jd8f3vfz9pkbkLA2HCYsASccQRR6T/gRP9iMwJ9xDgr3nNa5J2XwUQuBgAEW6Au9zlLqnPefYFF8VTnvKUBDZka7Bq/Ou//mtyOTzxiU+cPe95z0tWAFYCfQUCjMs4aMHcEgAKywNQwxrie+OdhF/5Mgfq/vAP/zBZhKY4jZVgBVMnl0iBCSAskdjTq7pTIABCLsAJaYL7xBNPTKZ0FoVb3epWsz/6oz9KpnqNtv2oRz2qFCCElu66f/mXf0nWiTKAQIgffvjhCaCEBSIPCiSE99xzz6S9sw7MAwiufcc73jF72MMeNhMHcfe7333tcgDhaU972uxOd7rTGhDxPvf8xV/8RYqjIMTe9773pb9/8pOfJAuDmAhjBx5cbwyeITviL//yL5ObZMqSKF973FS3vOUtkyVqAlHd9+dmvTOCooH+jQgwJ4CwWVf2io0bQHjOc56TNPfYiATnM57xjNlJJ500++pXv5osBfe73/2SFh9BfYTkn/7pn27lYhBvIEgwhAKTPy2cyTnX6i+88MJkyufzDxeDe4rZFGIQuCfqAELcd9BBB6X36/PNbnazNBsAAivFz3/+87nM5qMf/WiyMojHAIz0XTZE3oxDcCX3g3eKjwCWprYlBcRtAJTmeOy1NKa5Gx8F8CN8iaKyEQHmBBDGt+amHpVQIADCP/3TP625CsQFPPe5z02ZADIVPvCBDySA8MUvfjGZ6LkXfE9LzIMUbeTTTjstmeajEcq3uc1tUgAjoa2YEU1cUCAhLCNAhoPPZBbklgZaBEvAmWeeOTcGgYshAML3vve9VDiJ9vrud787af+CFh/84AfP3vWud83uda97bQGE9DkHRgTada973RQbIRaCRUILV0owK8ABmOBCmQoxbb2w3v72tye63OEOd5gAwsR5WlMAj/mbv/mbpKhMFoTW5JtumCgwDAX43wl7AjA0PUJQqqLMhSiixNT3jW98I73Udde//vWTgP+3f/u3dI0YAL591QvFAeQNsAAagAXNhgcYuAIiO4HGIHUS4Ih+RJDi5z73udoYhNzyACQQ8oQTt4HgR5YPfVUd8uijj071HGQ8sBawUkR7+ctfntwHwAoriXFrgBKgQfBpsiG80xjUjJjalhQQoGgegcONqAFO871YCthb9qmKqBtx/UwWhMWun+npA1GAYFafQFYBwY2pC8SLTRkBiLR5wv9HP/pR8sNLBfzwhz+cUhjjGi4JGv9Vr3rVLXrn3h/84AcpgNHfrpdVIG0wtAMMwf3SK3ONwTu5NkKTLw5bvIBsi/3222+LokhM/wIL733ve6dMDJYJMQoCEAEbAEIhJT9RtMmzXQeosHRwMQQd0IfQY/YEdNR3AEBYKjYiA+u7vE444YQEGGV8jL0aZ9+xTvcPTwH78HGPe9zsVa961YbcXxNAGH7NTE/chBQAHKIcdNnwfRdVDXNfdxRO8llZNcVI6Sw+k/VBzAR3CPAQzfVaseLiBA7KFyUgxUIjTmUCCJtw4/YcMhfD/vvvn2qVbMQ9NgGEngtkun2iwHpQgEVASWhAYQqu6z4DXDe3uMUtUszHRMfudNysdzowTmqyAOWNuH4mgLBZV/Y07pWlgPiHe9zjHsmdwdUxab7dp1LqKhcMF8NGZPDdKTPd2YQC0qPVKAEQpiDFJhSbrpkoMFFg4RTg+yTQNiJTWjjxshcITAW4WBEmgLBMym+Md9mHgDoXw0ZskwVhI87qNKaJAhMFGlFAxodMFUGrkyWmEcmmizIKOOzNWTDSHDciwJwAwrTcJwpMFNi0FOCicfaGbJWNyOA37cQuaeCynpydIlBxI7YJIGzEWZ3GNFFgokAjCshiuN3tbpcyGTZiFHojIkwXdaYAgODQN8evb8T1MwGEzktjunGzUYC/0QFIqjROZYs3xuwDCEpdsyBMLoaNMafLHIUgRcXMlGGfAMIyKT+9a6LAyCgAIDzmMY9JaU1/8id/MrLeTd3pQgGncIo/UAdhcjF0oeDmvkcJcwe5qWA6AYTNvRam0W9yCoh2d0rkscceO51rsEHWgnLVTuJUSnuyIGyQSV3iMLgYzjvvvFS1dQIISyT89KqJAmOjgCqFjk5WvvgGN7jB2Lo39acDBQQoHnzwwcmCsBEZfAeSTLe0oACA4CA3h8RtxPUzxSC0WAzTpZubAiwIiuo4d8ERwVNbfQo4DtuBX2IQNiKDX/0ZGvcIHAx39tlnz/baa69xd7Rj7yaA0JFw022bjwJiEAiT448/frbDDjtsPgJswBFLTxOkeMABB0wuhg04v4sekkPhHLnOTbURY1gmgLDoFTQ9f8NQwAFI97nPfdL5704AnNpqU8AJode85jXTSXzOYphiEFZ7Ptej905S/cxnPjPbfffdN6QFagII67GqpneuJAWcvChn/h/+4R8mYbKSM7hlp8WU7LvvvrNHP/rRyXW0ETXADTBNox6CUt3f/e53k+KwEV1UE0AY9fKbOjcmCrAgPO95z0tBitMZCGOame59UUnxwQ9+cEp1nABCdzpu1js/+MEPprM87n3ve89+93d/d8ORYQIIG25KpwEtigIsCLe5zW1m//iP/7hQbQEQ+cpXvpIKMs1rNGA///qv/zq78pWvvKhhb9jniilxSJPUVbEIE0DYsFO9sIF99atfnfnhYtiISsM2//Vf/3UJhsQ84rdWNJVgjBpm5Dv/I0aZz07QxhWveMXZt771rXQtVGUjxrOrZiq+99tG9a6f//zn6SCV//iP/2hEfH1yn+Y5v//7vz+7zGUu05p55vSI/njWEAwE7YKOk89zYft2IQ+2FgCET33qU51dDL/61a/Smjb3//7v/z7jB7/c5S63tufsFev4tNNOS5H1xeZ6e8q91uNd73rX2cc//vGFApaFEHMkDxVctscee8xkM0z7cSSTskLdUAOBm+GhD31oIxm1QkNLXU0WhKLwLkNChJrP61DSxRdfPLvSla6UUJX2e7/3e0nA1wGE1JlttknXxTt+8pOfpPsxwyat2LfLXvayifkCLG1agAzvdT+G7qctQFCG85WvfOWMUIiW06GKloDRH/7hH85+/OMfpzKe22233UzFrvz6AC5+66++ES7R4lrCJDTNAE5xje/4XnfbbbcEpua14vz5H/i60Y1uNEPnYsuPIzb/+pfTD1CKMRTpEIASwyYQ0b6seQYQmt8f4Mv1OViMo5GDXkGzeEYT/6F75MsLSsqvj2fqR9lzjAetveuf/umfkmXgggsumO26666zn/70p7Nf//rXs6td7WpprJ5l3NbA5S9/+a2G/fnPfz5pvb/85S/TnMX76vZlm/W/ma498MADEz25GiaAsJlmfpixfuADH5gJVHzUox5VKxuHeeNynzK5GCrojakTCJhGV+YbYCcHPU2mlyAJK0ouREOYeUb8HcDNZ7kADuEYfecnI6RyARZCukqwBaCIdxSFYoylTCjqt+cL6Dv//PNnN73pTWef/exn0y05mCH89S1v7kV/AIsAjbEUaRfjDQEdz47rc+EZIMlnBOvee+89e+9735v8z0BoGQDKwQYaGQ9ztINZCHVtxx13TML8Cle4whYCO2j37W9/e/YHf/AHqfLiRRddlK69+tWvPvvZz36WxgVkHXLIIbNnPetZs6OPPjrN0atf/epEI5qJ8Xs34C3XWgaFwDrgWSZFjBGtPvrRj6Y+5WMpAtIA4VXr0PNUFaxb81WA3xkVvjOvAE9VvYigbU7j4hqIfVPsi8/Dyle8P/oVnxfvzfeLvxW4YUUAEIrruI4GRRqGZTUsmW0VirI5ifHEeJvwj+ma5VEAQLBuxlhHo63cKaPaBBCWt5amN60QBQAUGz8HR4T73e52t60sCFXDci8hSVCEWwBg2H777ZNlimXFO/w+4YQTZk94whPW3Hc+Z8HyDN8DqoBGCK1wRYQQArKAllygBGCKe8KSBxDN63O4QFzjud4drkVC0FiqhGfQK0AgAFTWALRrXetaKYPgGc94xhaXhKXSe4vgMS4EhsIteo1rXGOGrpp7A1zrSxHIhNszwDE6ci+87W1vS/crvSymQ9pjE6tS3nHPuvnNb57An/cOcV5HgN2ge4xxhbbShu4q6wHwrrJq2/WyaMJYj32tYhNAWPQsTc/fMBTA9PfZZ5/ZW9/61loNu2rQhAcLBiHMsgIosCj88z//8+z6179+AgNFS0/+LG4nLjwWBG6ovgxgw0xOh4EAbzQ/VoTHPe5xrV2IOciYN2dVXTPX+mBOuY7aWiziudLsuKgAWO7MKlBV7EeVFShAiO/1LwBifn9YNgNIC9Jz0uktb3nLregYsTZckSFEi9otd5o17Rr7g0Wujh6vf/3rt3BJF8cXVtYYp3Hk1qew+CiXjHa+484l9KPF9VV94eqzf4HKvOVWpOtc5zqzr3/962nsO++8c3ItDgEm9FXM31WvetXER4qN9VYRMIpF1zYBhBaUyxdX8bYIHvN5mMg3YtpLC3JtuEvNsRgErpJJMK/+9BKkrAd//ud/ns7YmNpEgbYU4GJgubv//e8/iND3fqALeMFjcstRk76RPaxrAMO73vWu2Qtf+MImt1Ves81vf/vbS1MXOrY6lNfxsaO8zWRFfIAOFoPu+sYsjHLQU6fWKEDjk8VAU9pI674Ys1E15QF8aT9D+NfXe2lhxGIknv/85ycLwtQmCrSlgDoIp5xyyuw1r3nNYDwhV0S7xBGExeTcc8+d3fjGN247pC2uT2mOTZhdMYuBoAy/J6QjawFq+cUvfrHmG5xnwopeeLfnMPHkLUw0VaMLP6Xv573n1re+dSsCxYT4LfshR3AR6Oa73DoQQWTMZMbvdwSDxe98oqO/ZWam3Cw2zwwVz4i5q1pI8xZYTrcmayAIWRdgNo/gxblq895WE7mAi/kaaZq0hlVprB1ATb5PQjvJA/by/VgcWzAsv1/xilckbYlJe9UbOgiqPO6442YHHXTQqg9nZfpf5F0r0/GSjjqHwV647nWvOxhAGIoeJ598cgrC7tO2+c1vfnNJV23ABmN2Jcj40XKzaxvkE7646EfTKOA6zcf32267bSv6xDP9jkAyQV36JKKc79j/+goUXe9611szLaEFmrgGTeTLv/zlL0/3hnUhUhHLosn5DyNNVHDX5z73udR3QW0XXnjhVgDKM/KaFN5fxtyrgIYzzOXQ8+XNC1wrPjPm3KZoKyhiXUTwW9e112pSB7pYgSSa5plnnjk6ZlA1xC996UspWM6aVJvEfKF5BPi5LwIQ/V2cjzz7I+qhWHcbwcViL4rjsEelqU1tORQ49thjZ3/1V381mEl+Ob0ufwsLAjnwxCc+cXQ84e1vf3vK1urTphiEhtTDHAWkYCgaASf4Jv5v+JiVuixqGTTpNNBw1llnzRQOkSYHWVelJ857Hn+eICVBe/OsC+HqyS0+nuueCKwqi+IVnS7IjyCMgMGoARGWkQBAeUCVZ/NVu+YTn/jE7N/+7d/SM1iZBFQVQZj1IfVQANE73vGOJiRMvseoF2F8ACNLlfRIAjkCwqoeFvTSR4FRmIN79SH6F/SNZ1jTgDA6AqFSOJ1Yec4558xuf/vbp5TLJz/5yen+HDyw+Akq07wvMgcEmQV9Gw26cJF+ROZHfOXdfYK6PPN973vf7L73ve8Wb0NjdTyUzhaLMLV+FFDjQ9pvXndGAKAUX+sDf1ADhJXVnlkl5aCKMvz9xnuTm9xkdOOZAEK/9TzdPVGgFQU+9rGPpZoFGF0fgdXqpT0v/t73vpciszHjSJfU9wBShGdVISqCX9qemAvX5QwdeKkrrpV3HWCUSqgwV6QUdhmafhuTtEbpjawi0fQvrBz+DotaAMWogQHYA15AHDADNEUaKcsdl8wDHvCANN4cdMWc5/VI5o0B8BKxnjfvjOqwMSdhcq+qCeH+PAh63jsjsyLAcpX7Na7LxxjPdU9e0yHGHWmjkQ0QVXLDImU95KDeM1iw1EDRWFS5fOOdZRbPoUCh5xhHpCoHHYYGJR/60IfSGA899NDR8QTZVsB+HzfuZEHowqWmezYlBZ7znOfMvvGNb6SaBasCEAi/cJFhkjmTL8YVFSc1BEUIm5y5zhNmZYsj4hh814d2MYZg/PoUz86fm8dXEEzooIZFXBvuuZ122ml2xBFHpFK5Mc4QLmVxTvPih4rjLqNRVElllnbUNPAVRbfmbaoyl2TZ9YQuV6gWtCla8vK4pRhr/qz4vvjO4n2sLwLhFOyKiqq5MCrW6tAPljdpd+aKBaoKJLAwzKu34dkvfelLE0h0bolqmFx/eQv6N4l5AJ5ZFKUr5nPsb5lLZ599drIY5wDMu+wtIFp11RyEBFAtzhH6GP/BBx9cOt35mqkCd8W5Uk8EOMvXtr+f+tSnzo488sjSFMimDHzTAoScmGUMoSkBp+s2DwUIEa4PAqePkFslisU+iRiaVep79NUYWH+cW5E3QkaQolQwJZenNhwFioAwXIHcbuLC8vipLm8NC0dVXYUuzwxXWYCceEeAzRhDWOC8gzXLD5CQW5iqLBVNQLnntrEY6W9Yz/7u7/5u9ulPfzpZOq3rY445ZrIgdFkM0Ovhhx+emIaSu9D8Yx7zmFT0YmoTBcooICJY/AG/fh+z3UTd5VJgHkCgeQnSVb56asNRIM5TCXdCCN/h3jCOJ7EcsCJwo4yNJ0wxCD3WCN/Mm970pjV/GCYiIEut/am1p4BsCBHyUDSfNxR7xzvesVV2RPu3LvcO6X0AgsCroX2ZoTXk2QH81VWlipc78tV+2zyAQDF45jOfmZSDqU0UaEsBKc+77LJLcnVMAKEt9UZ8vbQUxS2iLCnBxqc1AYT6SYuDrF73utetFZgRqazsZzQ+Vp+1PUmz/u3rdwWAwITHj7qIND9CShZINKWYI1Og7agjnbZvBkDb9y7r+rKMjqpAtHkAQenbv/7rv5498IEPXFbXp/dsIApIc1SMSCr6BBCyiY3NGL6mvhpVMSCjK7Fz35fuVvmK4zqmIYFCWllE7wZay4MMJZ+nV73qVWu+W4F76toL+Hr2s5+djqkWDd6mvsIgHVzgQ7ikRM2/8Y1vXIgFQWETIISflqsL/dRe6NL00WmQApgERHXdT13evax7BI/Jp4+0VkFkgkhZBPIWAEHdjwg89FvNEZofxWD//fdfVrc37Hv47Pm+87RX6bbiOzaqJUwNDWd5sJ422WMRZJvLy7LPhlgkg7gYLne5y13SJFqy2GHEEODzspe9LAVtxSEdVdGbdQNWTyCibi2mtgWO4vl59HIehVz2ft+b3He/+91zg84iOGUenaLwTB4xm18vPzgq2OmLqNnYNPH8OhoRtnkUet318X3+/Lx/Te/Pn2Ou5ccbCwuMzZ/Th0DCpANw+Z1HP+eR0U02lPuL9C+7b9648nlo+s4y2gCSIuEJ8EVYEMIy8/73v392n/vcJ+2Hru9Ru0Bgntx0grOYgtZ27sd2vTmVey7NzJzKrffbXha9XQQI8tUVHlMHA+jab7/90p7Hw4DbvgVlxkaf9eiPqp0sh47OxqesZ+DUEeVd1/F6jKPpO+0rGSiyHwDNJkoyMMtKbQ0GL2Rl/fCHP9wqbbhJHwcBCF/4whc6AYToYER6St+R3xumPxu4SaS36/KCNk3TecqEX/5ZEwLmwuvOd75zOm4XY9YHx77GGIzxVre6VWK2VQDIGORmO5HP5pAnHjnanuf5QEGkNEWBmiIjm9dvedWRZiMFqCmwi3zlpjSpus58nnrqqckq4N2OOFWERxW6N7zhDYlumDCwGABBpUlpSNrtbne7FJsgF5r7AbOe17zDeI37Kle5SqJd5K4XGU4UTorf8dwAVPrW19xOy1QsScGdJsygC72tIylV/Jp9DvtyhLLiQKwIF1xwQbJIOHdgIzWunu9///uzb37zmymSnKlX/Atzb3FfAUvWImYMmDvpTkEv+5XVa6qk2H9l2GtcNpS7KJxFWfjOd77TSLvu34PlPQFvwgesG67VAJx1PXAfl5b9iR/Z7yyxj3/84wenkXojAqv7KEWbNs2xOJEWNP/yPe5xjyT8CJo2DNo9BCcQ0LYpvPOUpzwlHc3J3NkkL7rqHX/7t38722233VIBGEI0CrOEGbZusTztaU9L7gEngbnnk5/8ZEK70vswX+ZbDNbCJjCj+h8TGxM5l43AHUGgwAPmoOUmxiY0ys2U+VgB0bDEqNpXJ6ibWH+qaGnM+q8vQI34AEIocp7Rcl61SO8ORhlnjZgTdGXuRts999wz5ZBHM18Kr9COq7QuzyXsaTDAk9xtlpu8qYioap2DiFyvmmMOKPO+5RaettHmRetUALQ6612R5sZBE9Nn4JmQASKbNFUf0YpwoqRYFzlABCQAVwDfPgsga60KUsSwc4BQt6aa9GmzX8Ny8JKXvGTDksG6v/vd755cgvijlEJ7sk4ptr9o9qyEgp3JDDUfBMzX3duWmAACPtynpcOaivmfTUrshtYfDCKYDObvMwIBIyyr0hZWg9Bsbe62hVcMuqgtdiWE/pis0C70ReU3TLxp8wxmXJaDthMNIGCKfM6YYtfANH0FEGQPFJlrUzfGW97ylrSAaZ85kw2BEp+ZW3Qyz4SauWQmu+1tb5uq5dFcF9HCghIWgTrA03TcZX21lgPMEGCRxeBs9yYm0/zd+o1eUmrNM4sLJkrzZWnCIKzBABzurbIQlY3ZfLAUOCjMuSgsPdwhmufQclgRmNSvfOUrp3fm1jBrNv8/+h4VB5vOpSIwzujQmlgD7ZcAT2IC8IuoudCExt4ROeBBr9h/YTHyPTBlraJ30M9aBca8J+4JXhR9zysyFmmQl7+OeYt3ur9YVKeKhvH+nO8ai6wq4IalritoCb7q2cAQxaHPnogxhHXVugswmPfxSU96UqOjhj1HH/3kVtG2PDT3H9ZlAAAgAElEQVT6FcWZ/O9vz+z6rOiXccVzY03qNzDL6syKJT7Jd3XzFC5wdGNNBYQV61pEG8SC8LrXve4SzEMlqigkctRRR9UywNCeaI02WWw6QpLJLhZNmUlevAEt2W+R264lFGlCUb61WAgjJ6DJIcRMTt2ENCF8rmVGf2nB4hPaNKfCCZqqE1rFZ2JaAAlN0nuf/vSnt3ntFte+853vTAK6qfZVfFEZQFAtzYJm4chBAyGDdgKRLHx+b8KTtkbYDd1CABSLjbSld9N+BdOPtQwgEPDBFJs+J65DW0wEgHvlK185e9aznrUGAopAu+2zQxAEw6Utx0mmPtNnZlCfCaxiDcnpFswwF65B7zb0pZV3AYcxp22ZeYw3zLVFq99pp52WhARQhKHnRW6c4GitEsSRx64feMCjH/3o2Uc+8pHkHqPhVTVgjJUpAp3527mHQrmYZ2GKZwao8F58kbKgz8BTG9oX+xjzLk5j9913XwNswbuf97znJcsJS19VC8EYMVbuDRAFzOlzWPSi9oFnub44dgAWnxePBXDbDwE08j0d4LgKIAf4BJ7QKJcx+gcEEbz646Ay/zddVzHOcE2SL+ZfvymQucLLNaC6asQg5HuqChznYyLvWBByi5exhdUxaFi0VMaaqJKx8bk1BLj0acnFgBinn376GkBQOMQGabI41SynteYAoYmJHKEIRcLMvSZbP2g4/g8mXDWxfMGEaRs3wDxCxcSFBSTK0/YhbtN7jTtcAH0Bz4knnji7973vPShAsAkBstwMi16Qs7gL0eToFszXeKrq+zelSdl1GAEA9KAHPSjRiyZOEDZZp13eaxyKImE0xiO4iFsAoO6y7riw0NKad2yyMqiLaObm85//fIqb0UKIYhZ8kgD8e97znsZMs00fVZRb5Jy06Yt5U3aYVYWVgqDIm2A6TJ22m9esdx9XG8segNFmfe2xxx6zffbZp/cxu23GWXVtCFop3VyXxUbgAfLz9qp9HVaaEJ5d+1a0XHSxGse7A1CE9agv34x097AQlMmdqG7o2gBKQAJ+AEA4+8DaoUj4PAR1W3pZP8AUfkPhooDnwCKsU7nlKd7BUkZ2Aa3AkaDdPi0BBIMywMgcWA+AQNAQANBl3YZELCl1EcHchwDBQFkL+NQFKa5yO/roo5OmOKQF4ZRTTkngzcLPN6gNI1c/LAsRhW/+ugjQOrrrA6uF2u/+tnkEntWtl7rnVn0P6AomItA1a/S1r31tCiJsqpHkz5Z6yEKWWxC69m3efUWAENYB6ac//OEPE0MDtBZBN5o4wbrezZgBMjyNy0P2DWG31157rVkdafusXix/jvGONWtd3+Uud0nrzHy3WcsCb1VlBMTG0gTAsRoVG8DEAjK1ZhQQN8ASExYLoEQmF9eYYMy/+Iu/SNYV4EBmTNdGuDv8ScwXt5j/KRNibJo2PIDy3nefJ4DAlMZ3yCenLQMg2MAWLTMfRoX5Igai1DEug2dBABCGaiZbmk5E4Ld9rkWDbk2jWds+v+n10rWkng4JEKBQjG8j1TRoSk/onevHmhScSLgDDqsEEIpjxThoO4uw8owFIBgzqwHzrf0gK4k1QGBZzB2Gzyomw0FQaDS8iZkfX8xBcZM1MzaAgFfisRNAaDJ75deEBQ7QIvz9z+LOQsfPz5Iq9Znmz1rDsmnNDdWAevy8Ti7m79NHxb8AhD4tAQSImbk/YhBUyHvkIx+5RRniqs4xzWE2bV0MNiFUL/XNhu0DEPIAoQhczP1hTTQAzDLqOXQhKBoCWUw8bSayy7vm3TMEQOAyYoKOZpFBzhu12Mk8etIOCBCCAliQGsfn2BcgLNPFUBwfLVqWyiLW6ZgAQpi0X/ziF6d4paLJF68QM2TPRLxG0KpoDm+6T8cEEEKwGXsABHyKMmT9ThaEprN6qZvuBS94QVov1o39y2IguBiPOOCAA2ast4SyoNJ5cStN3kqmkWGUEfKrbR0T/QVY+hytrp/b/Pa3v71EfXnWgxCkoisj2pVWPc9XJJ2KJh++GwEvCBUtGKmAjKiRECYa34nk9pvpmKYa/pX8/gjSiMAPJl9+VJHaGp8QcyGieHZEZEfwTxroNttswRCL71FcpY8FgflS0GWTFL4mC6TrNQ9/+MNT9HAfCwLhkfuu/M0F00Uodh3HWO6zpgACqXT8uLI7wi/bto+5i2E9AQImBgQuoo0JIMT4AISyapL4Glpg+rS+IdrYAEKedmot4+14Pf43AYR2Mx6ZeyFj0JDcwR/Ij4jRaJJ9k7855Gv8poiwdomRoXQCdG2r/IaLAS/v01KaY6DlEAAELmLQGOu0jIhCjeuKkashtENI+z5PFYkAGJ9Hupx74ppIFQphr2KaCFjXRGCKwC/AREBSlRCLtDyWAvdi8mEyj6C6PgDBM7vWQegzgcV7aUO0BVHbXRrAJ2c+T3PczAAhp2HfLIaxAAQWBHPclpE1WU+rBBDEXcnVl3HAdTREGxNAKI4Hn4sgX99NAKH/jMtGot2zuJMBLOJRJdHT8+yMsoyWkGuCn8kfVWrFwslkk6YswLZL0xf8apAgxS4dGNM9AILshzwHtk3/AiDwMXeNQQA4TGbf1KQ2/S67tq+LQQYEwSGdL9oEEC6lBN894MSN1MWaMhaAYBwAQpcx1K3PVQII9qpIb0Kz6GKoG2fV92MECPiimArKmJiMAIYTQOg6y/9zH4AgUFqlXPvJOuKGDCtNxMGgf9MGKDz0oQ9N6bKs0l3aYADhi1/8YkpzFKQTGrmITAPz/zyBF6khzHPhnoCeooZBmPXDpeD/nCkpn6uGtc8iIj4KDSkeMU/D0bcIshoKIAgyxDC0OstJGTqnifAZtb23ywKouqcvQOAeskAngLA1hW1agjXSnNrOWw4QHI+9qPr/xSyGYj9pFuqXNInNaTvGVQMIKk0S6l0VgyJ9xggQwiWGr+NvwYMngNB2dW99PYCA3wtOJ68ABGmzffa2Imq77rprAh5RF6htTwcDCOedd94lzMrKjcbC4WsNRERbmteULs1jEJjZ+bkib7MoLMOd4bfARKVmXSPfXGnbKBoBIETMQTwDY45ce2kgIko1AIGvJmIc2hITgPFeGRTFU7bKnhUxE/nYwlTUNcK9bZ+HBghAovQs6TTGpfhRNPEjXU1dQ41rDM8BEAhWDLeLeT4HCIKC5cy3CfyMoDO0iH0U6zX+j5RGhXuiDkKRdlwMYhDcmx93HrE7XYGDPkh5HUOaYz7mqhgEWp14HTX1aWtDtDEChODF0uVU05wsCEPM9KXPoFRG3Rn7h4uBu0oRqq5tVABBAEJE+QZAaJPmqGgNphn3QjxNCyVJFQFE5qU55kAj/DkEuqj6CFK00UWNdjX9hotBFkMVUy1OdgSUBEjAkKHHKBjUdXH0va+tBQF9/YjEFbeQB3NK3QGapnYpBQS0hYuhi5UoBwisNNY/gF0EpSHsy8B1vh/stTBBxucRVCkeJwd5+RwCgvZPDjTyQCnPABKiBHLT+bcvxb90qaTY9B1drqsCCBSLF73oRcnX23Tf171/jAAh5jZiryK2bLIg1M1m/fehpKoIrFlHhx12WFJ8u7YhAALgrxbHIDEIfQACc2VejGFogFBGZJYCBY2iDoIoUkxPQZ+uflXMOD+JsO3khsamb+vZ2gIEfQWwzFuRdlE5bD3HM6Z3x/ki4UJr27ccIFQdZ56Xce66lvVLH6ssARGwW+x/WChykNilD4uor9CW1vn1VQDBXgUQpHfnZcT7vGtsAMGcOkgtyg0r/hTH208Aoc9MX3rvSSedlKoAK7SF1qrKCjBklera+gKEUPiAlnUHCLQqZXgXZUEoIzIC5IWSCDg5n1I6uph+vWOzAgS0dAoZoBcuHUE2UVYZEg2NMo7I7brwV/0+ax0IjdzktuNpAhDaPnO6vp4CVQDBPB577LHJmsLnO0QbI0CYCiXNUkwVl14Xy9+8daFiIktUHNfMgqD66noCBP2N2gy9AcKvf/3rS+RkyxMOU6fykYpAhL+/ikCRR6wYQ2gNYgHCNFmnxai/UOdiaAIQ+MgJtKij0GWjWzgsIWrJq4xlotuAjTFZEBRGCXdBU1rQaLlHolyoQkmTBWFL6gEI1hi62Bvz6oOU0b0LQFCT3Sl8sb/iYJym89rnuqo4oj7PXI975wEEMQiOeHdY3RBtjACB8MLji20zWBDIIhUzucLFuXGbCkgt1sXpOvcAggw6ChaeMBRAYNESUNo1SJFVPWRi17ElxfmXv/zlJd/97neTvzIEomDBOF/eoU18dFIAmSzVcc8bBua7ABfbb7/9FjnFJiJSbDCcSPfwt40p2FD75je/maI/obFo3hcVpTwnr5jo/3AxeObDHvaw3gDBJrKIBFna6MpmNgUJYwIIgFdYA/K5ojFZcOYwmH98f+Mb3zgBO+YygTY05fCFi7hXdtbpg5ux3HLQCIji23cKHXpYL23M6cyRgmHlOsvgadLyoF4lVwWaDRVxX/d+1iNxEs49WeVWBRC+/OUvp6wUQWZdAYL5CZeTv2mpYzqLQZ9U+9OnvPmcErFRz2IgK5w9wnriUKrccuAwMWf+sJy2LUBU3Ad4rf0YgnwIgAB0yAZy+mgXgGBu8fJBAIJKisWgqMgGQNTwqYc1ocpEE58XBQ+CRrEj1+QCNy8iEX3IJyDSySKIMH9HnPXteqCCi4FQ62pCch/GzZLiCE8Cv86Ckvd1TABBda+ySop5sFLuW3YqJq3YHDz3uc9NGmuYpoIBRvWwrhHuqyxgou+RcQAYAFncXHkN/7oxSoUiQPgpu1a6XLZVJyrx1Y1tzN8DCAceeOBWGSP4xvHHH5+Uga4uhlBaWNwEjMoGcwrfWA5rsn8Fcxtj3vQb4LWOu/LMMc95Xu2w2M8AdJHx0wbkF5/lWII4+RgdhwIIAGufNEfKiDXZ28WQ0MGKt6EAwoc//OHE8IEPgT1tNs5YAAIzOAHWVADZJFwSSldbCn5sGOZHAM1mkj8NzTrh7owzzljx1dK9+wACekH1LGXS+dowF8FH0kUBhKYWhO69ne4MCsxzMUQWQ1erTFSApfiwZJrbZz7zmaMACFE5kdu3CBDs6+9973tpHbfhc6u4qoBq82OcRcDbF3A77VPlw1C+hgAIFLzddtutl4thtAABoQhaZmopYUz/i27M4iKRBdFpTd0Ceb82SpAiX5tUs6YAIWjAdL3DDjtsMVWRIx8fAk5Rp2LRczrG5wMIGEzU42jbR646wsPpkH0Pc2n77s16PX6kGJJ00qIg5HJzAA/LjlLtfZp14V2C02iUqlWudwP2Fa5TUjoAgn7il8zrm6F9/vOfT+b6qPkBxFF+tLAgdJEXQTvuAOffBAAZAiBw6R1zzDEbDyBEHYLQOBExqnhZmF38KW0WcfhevKeNZucdGwUgAGQ0prZnMWCW4gvCoNQlva3NXK3itdYUpmKdd2EqAIIgUNqBgjVTWw4F5lkQAAcCfag0R75+cQ1xaiJ3ZRk4WcbI8dwf/OAHqSCd0r95i9iuKPC20fY7PhY8LX6zNCt2xt2EHiwrAofNf9fGxeCZeQyCo8XF1/nMuUFtaSuLjJJ33etet7PMZEEQnGkt9rEQpeOeuxIn7vMIgWw777zzVoV1Is7g1a9+dQqa4MNuS7A2/dMXGl6bCnUbCSDwfVbFIMyjY7gXVFKEtgUkRqOFQMZ9FlqbORzrtQAUCwq/bV7cqGl/uWhUKRXjgTlNbfEUsK4BBAHHxfVLYBDgTnMUyDZE874PfvCDa49ilWMxWq+9w90oJiLnuYBDxIXpaBxVP8T4x/IM80BI0u5ZkA455JAke8IVQIlVE0KwcZ8gXIWSyLWQN/gk5czhTQLvua5k6rVpQwEEFnyZeX3aIABBB2hVNKwq4W9iBEwoQ9lWu60boMWudG00AIG2VtWXsgp1GL7qdl0rqo0lBgFAeNnLXtaZxkyRtOP8NEfgjp9tkcCubo7H8D0GAyBIq+3C8DEK4E2GEM1iaounAEFBQDtCt7h+aZaA8OGHH975UJyyEYTOhd/JkFivzJ9QlvDlPMAbf4zTbMP0vmjr7uJneus3RIA1gPDkJz85XRBrQCaDwFQCtM+5CcAni0EoDOSH9EQBzLR3AEUKZJsGIBx33HGJzwgk5RK6/vWvvwWIzQP8i8827re+9a3JgjCqIEX+mHnmGiliUrXiQKQ2RJt3LU0gZ7gmS9pmzsRjYZQZTFz/1a9+Nfnq5LR2aWMBCIIUHSDSFYSVAQRuixNPPLGTWb0LLcd6T2gJXc/bCIDggLKup7SNlTZj7Zf9ftRRR6XiNcUMHEqNGATp1UPF1nhf1Mno4oYako76onhcFEHzbJ8RLhHJjy8CDBsRIBivuCkWPxaikAH4PbdLHBTYR/EB+NWZiGcACOScIGSZdVyKbd3dwMX555+fgkjNi3XqecU1GiChbM0AFUr/jwogVKVEmSS1FgxWMFxXLb1q88SiD/NR2wl3v7794he/aD2Z0aexAISuLoYYRxlAgMAx0S5m9SEZ3no/CwglZADJtmtM3ycLwvrMIFOy2i7FhvE6VAeA6GIRqhoNPqiWiliT9Wz4GhM47ZN7KwCCwnaEF37HurHRUpfR/7zzzpt7AJdrALkzzzwzpbd3bS95yUtS5gprBP44RJBi177k93GvjMrFoHNyvJlVvva1r80U3okGINiAENG5556bzC9jaxh+1xr7xiJa1kJZ77MYFgEQHvGIR6Rgns3eaAKA5ORiWK2VUAUQaM6yStT+WAT45bK8zW1us67EEoPAvcKqGACBBYxmCzywmHYBu+s6qIYvZ9F+yEMesmYdiTgrMkiNAK6lvmMXU8TFoJFxgh8FpZKFFNb1siJFkKJTW/u0wWIQdCKKhkTVQ5tOoIayj+oLqO6kUqGjnMfWMP+up0EaC58Wk856A4S2dRCK8+AQLPOmdnk0AMEJn+u12MeyVkLbsp67MJbJgrA+M1kFEPjhCQkWsiFauBeCj+AFrE72U5f1MkSfAAQVI5nCo4ULRL/QQH83YtojefTJT34y+fAFIkYdhAsvvDBlEbU1/ZfNBwuCao1RVC8KNDnRFABlUViPuQcQ/u7v/i6dk9SnDQoQoiMCBu9whzukfy3A8N0yzUq7GRtAiEqN+Ul6bYkaLoYmzwgku4iFY9Ojcds6CDFeedxSdJxOFk0aDwvCZgcIrAfW8uRiaLs71vf6KoBAcHAxCFRsm/VUNiL7mouOhSmyBLjmaLHr1QAEGnPZWQwAjD2t30O6WNZrrGXvNQ/GyVpC0zfWIa1Fyv0D/tw0Ud4+FGTB3V1iEIagH4BAyROD0qctBCDkh9jkcQnf+ta3Epodm4tBH50nEYd4xGS3ISyAwMXQJIBN4AgBzvw4tP/P4hQI2hUgiLrGNHILgiBF9dw3KhNpOs8sCDQtVrAuYGmyIDSl9LDXzYtBUK8fSBiiBUCQ5jiWvVJmQTBWPI8QYR1chKIyBD1X4RksM45VDj7OpK86ZzTplYrXLbuNKgbhK1/5SvJlqVBVltITZzvw96lVPvamvzZ7G+ENIHAxsCDUNaYfcRqiX9u8o+65vu8LELgYWAxyrWc9AMIYzwCwtpkl47TSJvORXzMBhLYUG+b6KoBgDwpS23PPPQdJRRwrQBARL/U5b/oqle6pT33qMETepE+hSEmpZ12Msxi4FyKeTcl+KZassje4wQ2WRqVRAYR81PwuoV3F3wI5IKmxoOriLAEEkRfsuwguadPfcDF4zjwTloUTpyq2OQyq6crqCxBYEAAEUc7RlgUQiqbOSEltMw9N6dTlOgBBX5Rr7aJ1TQChC9X731MFEKRHO+5ZUNkQ/uixAgRm7qILZQII/deVJ6h4yAojBRFPEHMAdOXFl+53v/slV8MyD/AKgJDHIJA9bdf54C4GneCjFZyDoaqwGCk2w0zJYp4i1YWbwcYBcGjSSl2GX8nkq99Q5U9kViRUjV2bJ0CcGcEdYdNGqVP3RGxC1Qj1JU6xLKvnEO/lYqiqg2B+5pnHixYE71Hsw4LrIhSbzlakqga4CloM7TNs2p+y66xnNMiPJG/zvAkgtKHWcNdWAQRAXbzAdtttN8jaHitAUFq4rDjcZEHov8YUWpKxgKcGQMDfc0EMLKisWAcQIttvCMUxAAKXB/fwv/zLv6TaCg6Ma9MGBwjx8hjskAEhbQbW5lobGxjgX47DeKJWuf6Hi8Qi8P28FoAiBHguyKOgU37ssjiEt7zlLQkcMFextGhVWnO4JKpcGUxdGF802u7FF1+crBoBDiLa2jvK3mMRqXjpOvfok4phzGVDBHOV0S+Kt8T4ioChzXwu6loAwRrgYugClgBlUc/Oop8qKS5qlrZ+7jwLgr2t7HWX+Sy+aQIIy5vTsbzpox/96JoCjJc6pJArnUshGoDAylAXrArIqRfkhEiFkfpYTgMgKDvwiU98IiUNAAtt4yEWBhDGMoHr3Y9IKcKARJQWT3lTzAICdV1oy5hWW1NQ2Tg9kzVB0ZC8CVySDvmxj30sWT0iPdU1AIFzyBWWyQGFvomxWPQphH2PX13kfANHgFZXC8Ld73732bHHHpsK10wAYZEzteWz51kQ3vzmN6fqr0MoMmMFCILoiuOLUy6nGIR+61CKrLM8tOCRzq7JhTsXA+tBnQVBTBpFjLta4aUugdDRDy4NpyrL0Dn77LOTYqL2Q9tTRieA0G991N5tI/74xz9OJn/+Kgen5BMPIOy+++690GJtJwoXYBhcCWENsYCHaMYKBIljqGK4YWEJUBLndzRBy4AOWro2tPiwVEX/wxp0wxvecIghbfEMQUZ8jWpeNOlvsQNcDMAZS4yg3i7PGHxQm+CBVQBBJUF1WpzVsNksCPYS8zhtd1qH3TeB8w7wUnzHGuKqPuOMM9Z4vM/DgpDHdZW9UWo5/oA3imXTupbApowo585qEGUHzDfFsE3b5prXvOYWpzkaZK5RBiJxVgENikBjcqbphcmdWVhAYtm9Ts0KbdhJgWr6RzEJAR3+D2GiYEdkQfj78pe/fJuxjPJaqZMCoSwc2orxQXGxKU2gKGo0WNZGVStcyinhSuh1PX+iSHCbwel1zGRNWtsgRP5i6wydqtab90LgNu3Q9DRHLCisMl0Eihx557wTWICGgksAD/fW1BZHgXkWhKOPPnom1XGINlYLQlkMAisYHms9D71PhqDlqjzj9NNPT26FOKWYG5HMy13RXLz2e5ylQI6Gm9c4o24CfkDxwZdPOeWU2aGHHprkQlXxPbLkrLPOWpOfoSzhjVwJXOYObVIsiqxVB4K8bdO2+e1vf3tJFMwI7a64YATgYW4GJehQVUQpjTFIzBJY0LHcNO6s7P322y/1JzS7r3/962uBf/F5MNv8hCqDyat/tRnUmK4NMBSLIJBm0BjtlwkOctrkfRuCZm0BwhDvLAMp/IJ3vetdB2d8NrZ5E+PRhanSJJj+7CVlx53qqA2d6roIuq7qM61JB7eVncWgngUGqy5LF8BXtvZYzz7wgQ8M8rwhaI7/vuY1r9mqP9afmjR8011N2UP0b9WfISCR8hfKjpgya6AqVg3fcPaHRlGMooFqcViDwCqZ4BniBy5NlxT0Xq5A5us2V7hOPvnkBBLiXd7XRc40cjGEGdxLFPlxHGWTQjwAAoYYwIOmJPe4yWaEeqN++Kovos3S/zEABCDziCOOSPU2ugjxeXMVWSd5EGibuQUMaBtPfOITUwxCEVC3edZ0bTMKWJOsZCygxYb+LAj8tEM07xJPxOw8hqY/fM9M18WYJi4GvNxemVp3Csh8k5EWjaZejEHIn25OKNcsDUCA7IZQGinEUspZlMUPUBxY6mXGkbdN42RYhgS8P+EJT0j3u8871Stq2xoBBGYJqW4YbgAE51TPawYtGnP//fdfAwiC31gQmjT1rYvFPZrcN12zfhQYA0DQh0VZECKVCVN1fHAToGs2oh4IXyCTLo12KLfO+s32arw5LJfMvsWGYXI/DBEQ7NnexbUlGGwMViH9ERgnza04RhYVgkcw3NBAejVWxjC9/NSnPpUq4kZqYh1AoMA410b56wMOOGC28847rxXl85kgRbFK4tLwG6mJXLbARJN5Yn1gGfLc4E9hzWgKMHLKNAIIzP386Dp4zjnnpHoAdVHYFickJGhNx/zfBiBMFoQtF3C4A3zaZKEMs/zbPcUcX/WqV02msao+Goe8c8xJsF6Y2du9abZWsdLayhc+3yqfmyCdoenEgmB8NDI/cosJ+6qGHjasTc4tN7VLKfCjH/0oxeKoYuhI5EWauDFkcyQYsdi8X9U7Zvh8rZg3AnTe3JbNZVgQ+I8XOaam60h/7AP8uqhsOeGRRbdrEFzTPmz066QQsqhHqwMI+J8fFgIgIIDlFa94xcQTxYbhiebO2qVkk4VNGsvmC17wggRAbn7zmydlXuNGc7pyL4AQHY94Ap3TST/SOI4//vjUYQBhXppWxBF4DheDqnyxCC3ICy64YItgxiotLI/ojBLG4aqYRyw5/De72c2Sb03Qh+YdEcARsQD5s3wvsC2uk/bktC8an7raAg0duvKc5zwnBZq4N0w3/h6isMU8IeP8djm0NNEwR4U222ThLOsafYOC6+ZJ8KlgHGYzf1u4Ub1S9G5oO3UCPn8P2ph74OROd7pTqmY2lGYY9ENzZVNtZtX3lMye579Gj3y9RWBvrMllzcuY3mN+uFo0ZlCR3XXz3Kf/+Bp+VWZBcEQ7kCCzKO8D3qE2yb777jsThNa0mW9jG8tZDPpDG6VNTgCh6Sy2u654pHcdQPD0yFIIuRhuBwHLAsjxl4gncH3T/eEe7g0/FHPy1/qVtdbmOTkFtjnooIMu8WDMNHyiETUZAIEAVC7Z/zYUk1Ux0yF/aAwO4+cDCyYZ52a7lgZBGOSEyJ8BRcmW0BeMRCpeRIpWTaHAG9eLpGfCBRCCuH5Hfez4O1A+37b6llAAACAASURBVI8cVOPUJ8wBSNC3qAVQdjZAmIvEWQzJ9IuBjf43dr8BtJve9KaptoH0rFVvuWUkULNsBS4syFxQbJOWB3vG2uyCmOe9KywfMhEARn13YluAROvHZ4H4/Q0AOTVQ0x97R3BSXhCqqL0G8AmA0WT8ddfkAcB1zKJsrcfzY4660JYWj/mJrkYTygJNp0ub18fi88QgcCcUg3L5j9Wl4BLIm7X3qEc9aibQ69vf/nbj7o0NIOg4zRHgmQBC42lcuzDkxTxXYgQpxk1NAEJcGwXzvIc8FDtQ3FfW5ve///10S5WszEfG0s8K4Vp8RhZDHwW2kYuhPWn734FozLmqnGHITSpAAQi0tGte85rpvmDMdb353Oc+l4QukGTSaKIAQh1yMwksHcxA7ofcujDOYv/0AeN62tOeNrcPkX1SN75V+x6SZl0IgFA3D8XxDSlY82fz1wJmz33uc1MKksbtEEd8+9u6zcFzVOGMDW4sxeO48/76W9U1oNi9XYsy5f2O6GX9AliiHHjVuqAozPOht52P/D1M9ypJqvAprinMoE3XqDEUq27Ou1dfvc97zZM9Hv0HENA5IsjjOYrf2HvWoLlq2ricRLQDPn1o1PR9Ta6bAEITKpVfY+9RIued7vvpT396dtvb3nbtAW0AgrUYvIO8Yj0oyg/g7rTTTlsr5dxkNHiILC61d/KzGJrcW7xmm9/85jeXdEl/6PKyNvdgtAbJNAgVNakABSBgHttvv32KkcCE6hpmSAsUFBmWDgCBBlEXhOZdrAfOGmcqZT7F8JieBZt0reMQ1QQ9n1uDMLKAmOUFoFzjGtdYO+tCH83fvL5aMNwUFqCc3KGituto2+R7tKJFirIVO2DO9BMyx6AJ46bMNjab8ZpXz4psm6bPcC8kz62GrtZebFpxBHvttVev4jLiEVi4zGc0Puv73ve+aQ69n8lbwZR5YNN1fI6YTKQYF/3e4dKwjsqeZY9xCWFyubuGz9reK2sCpgjVoKdnR4W2eE9o6mF9i+fos33CggD8MIEWW24JCgtmk3UU1+SWwvhMMSBg5I1vfGNaW9EoBtaf+izu46/HjGMenNL3kY98ZO360PKq+hMKhu/9HeDOvAAO6OwdVXE3ASxDU4x+lK3duNY60VTL43vOS7C7T50VqXNFPzYfOME2BctWry60tNYBTDyqbB7wLHE00ZoCBPyJYqmZ71vc4hYp2LHY8PqmdWXye60z8odM6tO2udGNbpQKJWEgYcoO00csQsg4zByRGgNVxYbJF3TcY3HLWFCtLIhgMQr8KSuo5BrPtIkRXdQm4nh20wpQ3B+uFzOgilQZIisSyyJg9qW1RTBlAIQ6oYJegkL4pXNTed8ApSjPHH0l3KW/5Iw2tKEmk48mKmjRosRajKlhagSFeA/9PPjgg5PwOOGEExpZENwD9PAnh287Hx+QYF3N0wKK9CB4rUN9iYpmrhF/gtma767NWmYZYcYOC1AwdX00Hpk/mEfd+qvrwy677DI77LDDEpOzhsbYmEPtPXFGDg8auuFHMhWsMXsgBwjcV6reAQgaQCADpqwBdjFP6xlwSojgNQSAfoelxxzrV4CP4Ee5WbrohkMTkfR1itDQc7JKz0NHwlwrC+gUmxfWRNc0BQiuZeG2x1keq2QGIc/l2rZZH5TXvffeu+2tW1y/5mIItK7DwZjC9Clvm0bs/9CACPtYfLk2kQt/pjvpYKGdCFJkEchN4/nfualV1UFCEbNWh4EFIdeC4trwRfrNX2gT04BopIBNXoSpbCO4j6+RhqFhKNI6BSjlvhvvC0SfC2ruDwFxAS76MnXPjgXpmfJl9c/hHVqYsPWz6cFJ+h6gb4j+9VpxJTebJ/NlbAS92BERvoINMeyqPhuX9cMMzGo077ocxM7rf1xHQAvuUrcgGi0CQxX005WONDoHYRlvWKxinRmLeSKoAKYuLfrvt5RKYFm2CMATa7jLcxd1j/m2zoHXJlbCtv0wZgDBfAZA8JliRrR878ejfIbuzicpa+J91GVhWclBY9v+9L0ekJJmy/qh3ywgssXwSC4w+0AL/pjzaMIML5cfL/g6P3xumWmZLK58497fJgi0L+3a3l8MbC8T4goR5RbZNgDBOiLfKLMhN4syyh7OQW3TMQwOEOa9mCYl2DAAApTaJM2R/wRCD8EaaY4hrLyzyo9OSCsioYXpOJgyQcLKECcOEqhiAZhtoWq+F+jJs3PtrOoERMDFffrpGmZtDCsCuwI4WCC5f9n14h0skCFiD2IOjM/CYe4kKEXMM3UHvYIOQ76z6cJb1HU5OBSDwOQO6KkCVzVO9wRAzEFtDuZCCMe81Vl3cqAcY41ni4nhemrj9ijSiwWOaTcKn+Tjdq21bF3Lr+4CQpwTQcu09mVYMCV7jhge6YXW1Nhak2CwPn3Gr2jLAAhmG+d5sF6wANr7Mh2A8SqBRQlAO2d8CGJer3b44YfPRM7jbwGorGluHuABGKxqFDb8yvrlOgFSAYWnP/3pndZaVxp4H0Eq8L1pEHLXd/W5T3EtawVt0awMRLF0ileLZlxiW9rwZkABSMDziwDB3FaVWp43ttEDBJ1XYQqxAtG2qYPAZEZIbMZWDMKyQDBRFgMaA1N6F+GxKrS0Kfn9CDrjrdJuAiDkQj8HhGFmzQMFm2xczy2msaKd9FmFcMSFdG1RNKnKrOu9Yk0wjC5anUBZLgzv8QwuFuMBmmXq8MdvthYAwdyxpIgjQVvKi/XFCmjPOaK3CiDQelkVKUoE3Ho1cym2Qf9ZQALQEjI+mweArQl7y9pjAY404GXHoLEQhnYuq2VsjaDGa8Xn2EuqY7IecTEU921+fpBxdAEI7osMqCJfz2OD2tBpXQGC2ADMR8vTp3LLQF+AEMcgtyFK8VoCAsNk7UBo6U5jrB9Q7HcsOpvewolAxD602Ij3Fs+xIFx9hvEFEBDg428uGsy0CUCwbqTYcqvF5vWbj9dz8mAi1qdwT21EGm+EMQVAKAZeci+oWcBkX+eHj4p5LHlxvO9GoM00hq0pEBZvFmmgC6Ahj+LUxvwOMUW5a2xogFAVr1c3b4MBBIc1BSolkCLyNkyyBCs/i2Ayn8nDF5woYCuipAP15NH3BsY3xuSpeQetMD8Ks2yQ8SwRv22PpsyfJ6iSCZFGIMpUDjtQI06B6ZpvZ6wt13jnMS5+SNGvdcxtrOMcol85KC3mxlvPAGHEhwBefSrHAZs0zjj9j3Ze52obYozTM/pRAEBw5gJgFxq2PeZUTi48hzY1sdaIURiji6Yfdaa7ixSQZRSxG/l3+AiZkjfyRTGqaAAC93fT+LC4r8qCEOcxuA6vI2ObPHswgPCf//mfKYtBJLj86PyshPDfIoysAh0UECYSPvfFxyBDuOcCy33RMNcmJhPX8I/xqbVpMan6xr3BTQEYRL9MLh8czVBcRRNtss37h7rWOEK4GUtE4EcQGw2ZGYwp2vg2c8tBQRT6ytdmWA3K3BFt6SbbJeogWDvApvU0tcVRIEzoOSNt8zb3Czyk+ARQFIuBJ6gRIA0MeGgCsgU2Nq2J36aP07XjoUAxuLPYs6ILIJTiHCDMO6wpf15eWTWyCIvPFxwryDaalHyxUHVtMICQzAcbpBkK/zCwI/gI0YsgIISsmgmi5yG+Mfrzw39O2EV+ufFZfMDPGPu8HsuomDcffQg/YgiFAAhNNMWqcQicdRqpkyIjTqEJml8Puqz6O9GXhQYYLqs62XX9R3wP5ixgVF0RPKMJQFh1mk79H54C5EgeGEqeRF2NurflAcqs7UBscR3m6aoBKJootqxdzhgZLM2xbjCr8L2gEj5n0dt1jbmZNYQG2JXZ1L1jqO9pxnmdirH3d6hx1z3H5jGP8/KI4xkRz9EHIEi9leYrorlYBKiur9P3zSkQVgP15JVYt97DNYDuvq/LRql6W9yPETuoCa/AByaA0Hx+piv/hwICXFXdjAYgND1W+eUvf3myBliHnhF8voq+eFhThUTAreyKCSBk1GRyxzxUaoumGAVtEvpSdAIjUJBFNLfgEwJDPMXUVpMCwfCj98WMBsAqIqb7gAPPlzIoLUs2gEDdqQ1PAec1AO1RtK3sDZG+bG6bHsjlHgxY0ZnQ+AQpykgQVzCB7uHncjM8MQ4VNFayRpwLRbVNs9bFRkVp5/xeFWWtU8d2cyc3AbJk4D3vec8JIOSExABoeFHgyHcIn/9WSASqUiwkYiEmxtBmKY/7WkDQ5iA0zL2fIcGfnGcxOupe5DX9x02V1eodYc08qhX9uzESc0zYN9Wm3MflqJy6eQsmy2UU9VImPrBa62Qsvc0tCNwNLAgXXnhh6+5Zk3lwevEBUTyvKSCWsaMi62RByCgpxxlAiM3OxyioKDRHhS/k/7IwSGEJk83EHFqv51HeEAGLeVjNkHMrSJF2G7XXvacJoh8lsUbaKQGFCqyxBEVNC3/n84ju6qvkh+TUDQfzFWCq0qAAaE11RWcU4ANN/Lp171jv74cIxF3vMaza+/GESHPuChDExRSL8BXp4JoIim7CcyaAUKAgBiBLgk8xCohwOQAEgc7ydDd/C2aUptb1UKVVW8xTf/tRQAU9wovf0JqiKcwr8dzvbZvzbm4cEdgAAQ2fBsRSEEwxggyLoKEptWhiylhjoFKwVU/kdhgSSDbty5DXsZ5FSq/0zchuWvVxDUmjRTyLi0oWjNYVIIhrUoStrIR3ZAyaR6n/iuQ5z6iuTQChhEJx5rsa+rQPBM9Pzcs1hdAy+/ql6yZq+n5jUIB1wpHefIXqaRBU0oJZqAQtTm0YCojxUL2uSqMn4M1FXgyrzZvdK3vJ/lduWB77SSedtLIAwTqkHPF/q0+DbgAPKynethEsI23md9nXCgYEavsABJYtvKXsKAAKLGtZlFsm25q41iaAULESHPDkMJ38CM6ySzEGNbaVTp1Q9rK31eq9j0BRrx+KjyOkV28U4+8xoY25VQUphp+2iZnVaM2bA7JYE/P6GP5mCbr//e+/ci6GiMHAt6LKapGHGZ+UaGCWUJnaYihAOXBoVluAEOmL7mPxsRaragt1qUSwMICQH1BUJGmxtG1swChN2eYIYiYxiNczh9Ti9V/xk+985zupJGq+cXyn+qDiEyJNBZQ0ZTSLWV7TU1eFAjYp5C4dSWXRCVQuZubEILAg4AlqFEQF1GJaY5uqciopXnDBBVvNmeqw3ETqWqxSsxZZDOJE3eJazAVKFF3rU0F0lWiz7L6eeuqpa2n1bVwMv/jFL9K5IFEtGGAoO2irSWHBsjEvBCBIs1BGtthRmzVSxQj1IqKJHP02daMNXEoIdDs0s2Wy4acRk0DbC2uCgihOiOTzYRpq815jdqJbmIGMNSoacmNU5cUHyo+MirLJdCQv0CKn32lxbfq17A2xWd9n/sUb8Ftvu+22E7Bc0EJQxwR4tycc5BMMMgfyoWnhV7kLsapLAIL0yeK+cgCTzAZui1VTFKLITtDC/+FOiDoSeabWxFMWs2DJFGd5dLEgAHlxppH7y+YoZGvb3i8EIPDRi/TfZZdd2van9fUWsWAhQV+LWLxxah7G8IhHPCKZcGgMGIr3tX0nAe90SeVWo4VfyLOiJHKREHEqoP4AV2UtzKZMoRDlqjGr1pNfckOcqZBXFwsLVdlcFa8bog/znuF9O+20U8qZB6A34xwtmsaeH5VDuQnnHfXdpvBVFUBwQh+AYI+u6nw6nTEHUrFXFpXJs4w1sErv6OpiMEbrTi0e81e1/vKzGNrQBUBwkFTfAPxt8lLLywYIikDc/va3by2s2xBqqGttOKd5sUosonn+Kaeckg64agteFtGfZT7zKU95SnL9MCPbEBHNG66rMnr4DL2aaJBdx1Is48xiBHBe/epX33Rz1JWGfe4Dyrki4zRW4CH+b/PcOgsCRr2qe856VLTLXsktKgF6woLZhl7Ttc0pwOIeR6i3cTHEGxwq+NOf/nT2l3/5l+nMkGLj1izLbqjrIYBwwAEHzB70oAfVXTr3+wkgNCTfMgGCLq0qw2pIzi0uU/WLL6/NmN/61remlJ++CLnOaiDQyzHPwCyA6CwGroZV1Ti7zM9638OqSchrTSK48/7at9yN3/jGN7ZaXywI4pRE/Xct3bzetIn353EJwEGYr6cshsXOUFcXQ94rlRK528vc0BQmvK5OWYoaGH5by4DLWWed1YqnllFqpQBCXla3buEjVBxukUdEh2k6TkssMoZwCcQBSRFE2RUguC/M5/Oqv9GMnE2/11579Z7UxW6J4Z8+VoBgpFLiFNYRBc+1ACCwIEwAYfh1UAfWugBne8/x7mVBiuosPOpRjyo92ne5o+v+tuBxEW+A10nbNK42gLt7Dzb3nTLhnBeidbEguG8eQCCfPFeL2JIi7ylzKynNzCLRdw2sAQQvl4OMGdKYFt0s5Le97W2zhz70oY0H8brXvW7GJBPEmtfH0DQgsLIqVRGHUEwtQQdmGb4hcQuEtj5qkNw+++yz9v4AE06dq0pFMc6YpAAdHsA8buIf8IAHpHRLDRgRCLnq2kzbtTNWgGBOBbyKPTCHcssF0E0WhLYzvH7Xm0PpqWUAQZCiY9+B81UCfMYU7q9QQFAYr6OECHb2uTHJXlCBr0lxnfWbpdV98xve8IYExhYFEGRMSaMkY/75n/858Z66NGtzr1z5EGeMbAEQjj322Nmhhx46aNrhvKk/44wzUoZBnTUgngERqXy2jBabkG/8dre73VavDJNOCP02SC2CGoGHKLMZJqQwES1jjGN5x1gBAgBoY4o0NmfSyr71rW/NDSoaC02nflxKAftpxx13LM1ioHAcdNDjZ7/85a8a86Ax0BXPAATycyXK+mXscuwpfZtN6VjWPDna2c+iAELIiMgQJCubgFkxCIMDBP5WQV9S7hbdIGAI3sl4TYVrnnO66P6FOYcZ0gFPG6FhLDI61A/XpOdAqE0W3CLHP1aAYHPKk3f+gvWA0Z5zzjnJstQU1C6SbtOz6ylg3q573eumQ7aq0hxX+SwGfQdkWQpiTfo/DrqKQkr1lJqu6EKBIkBwPgglok2b52KI50TAbtOg7MEBgo6oKc2C0PTEqDZEKF5rAX/qU59qleb40Y9+NFVZW0YLgKCPdVUZl9Gfod6BkTCpan/6p3+aKgM2BWhD9aH4nC4AwcmdggYXGaSY99N6uMpVrpJM1flx4ouiyfTcYSgwDyAoVOM0x1XOYkAlY4yjgu3lH/3oRyleZr339TAzOO6nRGq6XkYMQlmwoRR3Bbm4BwC5mBvXsow7bTTS5rmE8DXnMLBaXu9610tl3VnCmraVBwj8ZMxkCNB0IS/TxWAi9I9VpQwgCFoTeRrxDQQvwZEHjNQVuXAKmBzY3XffvTIApemCaHpdESAAQF3qQjR9X5PrugAE86Jex7IqxGHCghNF1Eu7W2+rSxO6TtdcSoGqNEenOYpBUNVu1S1CxRiopjx1WiP9KCCO7iEPeUh6CIBw61vfujRdcd58fOlLX0r1b4AF5wmJa5CFoiKwMxqUH287nysPECxo5yHc+c53bjz4ZQKECP6hYZcBBBMo0NDZD5GlELEFeQBklSCJLAtaDKCAQYWfcOjy0/kWKAMIEQfRb6t0vxtAUF8iIrFzmlVtjJNPPjmVOF2WNm++HMyk+Agatt2w3akz3dmXAlUAQdnsF77whSmobwJ8fam8Oe/nJn/sYx+bBk95YJWl7bdpuYtBEL7USa4jvEZFUZbztm1hAMGmWQbzGztAiDMp5L9XAYR3v/vds3333bft3K1dDwhEFGxU1GIeZFVYVFDRGF0MXAWf/OQn07qL0/oAJj9hdisS2XcXXXTRUgECsy0XQ1Tj7Dzx041LpUAVQBCkqGJjpDwvtVPTyzYEBWS5qcei4UcsCOKW2rQcIESBq1BQPbsLQHBkulMm+8ryLbIYaMuCLPo+tAlxEAAhpW00fd8yLQjGoI/LAAj777//FiRjalqUybPMghBloAljY24aKdtknrteA6BFXyLgquuzhrhPX65whSvMnBUwAYQhKLq8Z1QBhBNOOCFpf5MFYXlzsdHedPzxx6e4PU0grIw3tVPaNADBffhwsbEEtAUIC0lz1DFBipMF4X+maB5AkP7GzM1H5LoqkBO+QcK3aBXAmPic9ttvvzbrqde1OUAABmnuiwIjvTo6spvNo7M43vKWt4wmBgGIEqEv8Mn6UqdDUaC6BnCx2gA6F198cToTZSO3KoAg0NXhbasepLiR527sY3ve8543O+yww1I3zz777BSXFkHgTfv+9re/PbmZywAC4IBHhwusTHmMlPw4Fdn/3LYf+tCHGivfVX3dopLiBBC2JNM8gOA7SJFGWQwQyp+Sn3CZXxeAQgqdI22X1YoAIYIUl/X+VX2PzWuuuBjGEqQIINzxjnecfeITn0iWLvEYN77xjWtJjMkAE5hSrgHV3riiF1QBBIdBOayJi6GpFXNFSTB1e0EUKAIELgaKX5t25plnJst9GUCgVIpz44pmcVeUSfxb3iLjLtaw30qLq4HRd11vBRAcnLMMjXLsMQgmYB5AaLMAxnItgUK4sXwYmwpd8vqXMd99aBBBoH2e0fdexzzvsccesy9/+ctJ8x5DUJs5xKDMYxuAgJ4AAsazmQGCLAYuBox57Hug7/qd7l8MBRyIBGhqeMStbnWr0jMV5r2d0uHsBBatYiPgAVwCPyzVdbxnoRYEpX7rOjAEqSeAMAQV2z0DzeVL+x3pmfJzlzHf7Xq65dWLjMlo0i8CFRPgfhOpPJbKdObxuOOOS+W5uwKEF73oRbNDDjmkCRlW9pp5pzk+7nGPSxaEMM+u7CCnjq8LBQ4//PBU36ArQLCHuQIEFZaBVABBnJ7iS0otC2DHf+ralMVQR6Ge30cUaVWaY8/HT7evGAX4Fx3J+oEPfGB22ctedmFZJm3IArhI03vyk588AYQ5hKsCCE984hNnf/M3f5NiEMYOktusi+na5VEAwHzFK16RXqiwEVeB2j5VLdLZpWj/+Mc/Tgqb9GkVhfM1GGcEuZ5rU60EVgQxb03aBBCaUKnnNRvNxWA8LAYQqYUn59ZRt5N5tX6hfPOb30wpce9617sSQBgDzYoWBGdGKB5V13IXw2a2IHAxMBFHSnMd3abvJwoUKbDnnnumejiabAQuhnkxaXE/UArYy4DYe++9U0qi/asFOBDjxv1whzvcoTXhAQQFlvoC3ylIcQ7pNyJAKKuD0HcRtV69K3JDpFoy80mJO+aYYxIToCEsqk5FG9LkAEGgojTMJkGKE0C4lMriL57+9KdPaY5tFt107RYUcBqvgkaaYENBimWllvObgAOWA/Ffso6c7UJRC8sDl1e4vSh0XQINAQSui758agIImwggGGoxi0GKG//rvFTNzcoTbPS99torleIlgB1iphaHbIHYeBFBPK9iZpcN3oTmOUCQCqV+e1OAIF1TFsNmtiCofx8AoY1FyLrI5zv2TnGe+wTX5vuxLPup6frInzPUOhwTr8j3Xx96N6Fn2TX3uMc9kvYfAKEqGyHuZRFQ/Ig7giXSWQ4sBfai2ALjUSzPGtt22207WyonF0PXGW1xn3QVGuNGPazJYg6AYKzQ6tT+hwLSigQhMdVJGdphhx3SemAKjKC2ME+Xmalt9jaCpy3tc4BgHgUwTQBhaypWxSA8//nPn8naauNioP299KUvTUFlmLifWAuyIS5zmcusdeDcc89NufFSiR3AU9bKhC3w6T3WTqwh/2tRXbSJ1S9Kv1/5yldO54i85z3v2UKjDKDjurpA4BDEfse7hwAcYU5vu/bj+gBP0ZcmdOn6rrL77n//+ye3o9bExSDugMKhKqvfrH6sBQ5INLdqKKAJRa7PWAAE5es9t888rZQFgRb3Z3/2Z0PO79xnbTQXQ9GCoAgHmi5SiC1tshb8IsFsMgbOOuusLSwINiGLAiFU3IhMj9LocqExVDetTXvhTne609ojpVm9733vq5xPQkAedcQp0GAwJMxI8KWfPkxpqLEN/ZwqgCDo9OUvf3kSjk2ZKBDguHSnQC66BXBp2rd5/eHvZjGJRiGwLod4dh86EGR+7nKXu6R6MIDUaaedtuaHLz677AC8AC1Fq4u1XGaJqRozegNSNHrKkqylumb/ffzjH28MEPLnRRn56OcXv/jFVPBMsaW+rUsFxrJ3rhRAoMUxuyyjWSyQHb9SUwuC6x0+VdTELWoV25z6hcHQENZDKNssIRTQcCzHPS9jPvu+QwyCdCbrASCI+QMQuB5EGueN0HHiJBovggmbyyOOOGItxcq7HRwj6K5KyFvTL37xi2dPetKTtuirNanc94knnriQvvalfd/7AQQpYkW6vPrVr04povy/TdsyAULTPjW5zlHBAm3H1pxk+/73v39s3Ur1RaJC4rzOyYSxp7QmFgQAICw7LE/GL8jR2rQeDzzwwN60wBvihNy+gH+lAAIGRtAuo3VJc8SACQxlbHOhEOY5nzEFMy9d//rXX8YwthJaivzwOzOf04Qwjb6LaOkDWYcXAgjoxtePhhGDUAUQzDmNftddd12I0O0CEJipWUKKAMG6Ve779a9//UL6ug7TtcUro9BMEZRzMfAJq3HRFMQtEiAUzeVD+vrxGzU8mo5zWXM2VoDwspe9LFXZrGt5DEITgICPcDlZc9ajSryyysz1UABBn1kQxEb0VUTXFSAI+GKiKRuEnE/nazOHxpG+Z5xxRiotu6xm0gSTYPJlLTZwBMf4/bnPfW6uicgm5XdaliVEv6OfRT9i+B3HxjSGZIxDrRUbm4nW5s6zGOYBBCb7Ilgcqj9dAML555+fIpuLAMGzAASnGy5rLdCkPvOZzyRaNs3t7kq7KgsCi4sKdsByU5C8SIBgfPmZLUO6GGJ+g4beg+8ua76r5m7ZAKEpbzn22GOTdamutXUxPPe5z02KhjNQ8mauhwYIK53mSDgJxkshhgAAIABJREFU9oHSyqqYMbXss88+s6tc5SrpQBoL+ZWvfOUgJpi6SY/vLSbHMIsOL2tcCtwGz3zmM5OZ6FnPelYtQGDqFOQmcGhZTaCUBY+G8navfe1rz25+85sv6/Wt3oPmmHDf4JpWL21wMYAgGMnBKlxITSwIYwMILAiCpIDTXCDai1wMy7QgOOzMvnLevWJki2wAAkuBNZU3dRC4gTDmpprWogHCouiAx+JXMe/G4bMxAIQwsUffyg62q6NLHmRJ2EbwaDGzoWmmg4DO+93vfnWvTXFA4ri0JhYErgsAQabCogFC21Mgywa7lQXhr/7qr3rnTtZS9b+1WhYEFoGyXE0BREzxKk6JzLaBmee7FI1o0p/iNQSVRcZMLLe1rPleEBpGg8HSSAgFp/5VtfUACM4sB7JOPfXUmcpfmMJLXvKSmRzeou+8C62GugfNpRUqGyxKnOUoGFhsbGsF3X/yk5+kADNCpiuT8wxuK83zrTEC4xrXuEYqYBIllaMOArOgAKr8sKaxWhDQEqD2O+acUBaDUkYvQXeLtiCE2w6dHThDq1Wsy76ui6Lvs8YABKVqi03QKeBg/xZpQkgJGgNg8kaw6ncEkoVbgHCLbIC4vuu6FDyIHlFSN88yCL7kd115aEqIIFRWGoJM35taSvrQu4pX2muCI/XHOjRG/vuDDz54JhsgaBhBe54TNFzk+ijrL0uwokdVLdby3e52t9npp5+eLotDl5x1U9WAIfNA0Vg0QBjcgnDUUUelg1/6FldosrgQ2AD4Spqi92XmbBMYmISFcvvb3750SMZAmLmWS0R8RJ2LYT0AAl+UeRWMJW3vBz/4wQwQzM1tsTkNNHdJdGVyTdZAfk0wWpvtwQ9+cIpqftvb3lYp/JUeBXpE4HdtDl4StRwVzPTBe6F7wlWWR4yfBYF5kMsJQBi7BSEAAka87777JuYLkBtfWVs0QLCXlKTFY1jl0FhaJmsGAS1Qze+hGzoI0KsCCNaAuS1b58zA9rOAL5ZC+4abc1l7YkhaoENEzfu7aE0Z8l3FZ0XAt8PBaLU///nPE/inAKJ/7KXQ+kP4NukTEARsckUrPuTZ0pEBkSYgyjsonRQ9fBKPlPHBuv2EJzyhFiDgo8qda5RJCi8gXmzGGOOy5gHjRQMEe4q1M/g5+raV7WsWBIuHtk7brEOmTSau7hrmLohS1HXTDbfMGIQQWCbSQi5rURErhBS60UDnpan0BQi5FhZ+xOJCy+kZEbM2aQTNWSSERg58xEU86EEPWqtL7z7PH4qRRL/zvhWLzRgHK4wgQOvQiYNVawNAuM51rpMAQtP1U5zDIkCwgewBGuJNbnKTVOUsGiGCETCHAwh1WQzGu54uBmPhH6WNshyZc+CLJllkEtYxBrlIC4K1JPArNCfM2Jqzt9D0Oc95ztqpeHW8o833UtbEOBQZsmcY83nnnZdMxGVriPZ90UUXJZcccMPtyV03VvfcPLpYj6yyrLEsZwpELbN5/xvf+MakPdu7aKoOAGGJ9uSAlltkmvSvrI6CZ4QVos5iEnypeL39AyD4/ha3uMXs0Y9+9Bbd8bkfls7clB/9L/Y9hDQXA6HNQlnk23gfa98QLYIU7W0VYLnBWTa47du0LVwMEL0NtQyAgGC0iSOPPLJxf5ftYohFUGXh8D16CXQSHW6x0jCrXBIG2hcgEDreh+GWbQ5z57tYkDQg2hOh+5WvfCUhXN8RBrEp9evd7353Mu+HGTI2WVPrTt0k2nA0MOZFi7bo/6QFYFzM+zR6Gts8gKBMaQCEOiZQ1bciQEBPUcncCMUGIDBJf/azn039i3eO1cWAxhiv/tGAAQUAAWgoCkNzjmHRmrqCrbr59w5rAM21613vesnNpZKctUgTpOkP3b72ta8lU/FPf/rTrR6NWdoXcVxv8QIaqQBGfeWPZo1xJG9eKCgEQhu6xd4sG+u870KAFt9VJZTy66xtAIGliNVznnY89Bzkz9PX9773vUk5wTt33nnnRb6u17MpCRQ+NFN5tDgO/7M+RAxCk5dJlQYQWCmKAIEFzXkvQzQAgcUTuDn66KOT5fgd73hHUgLbtC0AAn+uIKahhMK8jliwTMgPfehDG/d3mQBB/wgo/ava/BgeSwgmZDH5X6DKIi0IzEa03DpTkY3If0pjE4QFmdKILFBInsDLAYLodoIkb339frm1w980SCVFo0UwElozO0v58ZlaEk0AQrgY2jDnfHxtAQI6KopCUERTmMjcF2M5xmBBQBdM+I//+I/XLAhlAAGYkPMNAHWlZeNN/N8XAoTAor0im2FRzd5Ui6IYNe599je3C8ZcBJkBsovKElrR9PBIfVct8aSTTkrAuqpFcZ8Q5J4ZlRHdg+Z5UZ8A/j6Lv10T4MF6K1MO4vp4X15UyN94gPVAa7/BDW6wKJLPfa5+y+TiBsA7ywLA8+qU69LJ/36p9YnWYlgAwyJAMB8UrqEAwtBZDCyH6A0gUMR7AQQPUmWN4FgGQLABaWqEXdO2TICgTyL/mZubnL/t+mUABEEugiDrtGaL12E0NMMi09fPRzziEWnhs2jc8IY3nN3sZjdLKXmLavrDRZRX/svfZf1hsszNAALtDuOtAkJhpqwKumsyjiJAwLQdvSo2ptjsC5puBCnG9wAb/+eyAQJ6MRvGWfT6UyyUxCKAgSnkZL2wIGDKgGC+JuxFx80yoy9j7+srP63AXto5S+Ki2jwLAsbJqtaG51mj4RpdVJ+rnstFyL3RBcTZRxGDsOx+l70PP9AfvIciUxxTAKL8Xp+Fy9T9sVbD0hs80f/hb4/gZp95V4C03FJTltlQxw/jOWJ6IkixCV3nWRCGAgi5JdTfrAasw8oGFC0XdX1esyAYMJ9gm6pidQ+f972OSxt74AMf2PgxywYI8sYVGKnT1mMABIxNvEgLQlOAYPPRCPkauzCUxpNScWG4EeLrYAhoWdafsDAwOYYFgVmvCghxMRAuXU8706+yIEWmOVplGUAAXgjRPC5DrAQBTCPK23pbEEII5wCqysVgrbzhDW9IftZlAYS+66vp/fMAAveG+QP8mo4bQABcKQ6r1IzPnqxTLJY5JrSkmVNMh+ZRda6aunGyarE8VTXyyzvUcbCGmrZ5AAHA52Jouhar3mmeZVdQyDTWWY3lKrd+NunzVi6GZQIECF50fdO2bIAQgUlNF69Fs+gshqYAweLlz1fbvO+Cazo/RQEZWkBsVn5gcS5lDe0sbIWIwoKQ+3uL9wBiO+200+BZDPMAAncN+uebTEwIIFkcF0ZsvIcccshCmDKa2ju074g7oQkTXFVCIAqToWVoYv72rDA/NgXDXdbEetzTxILQpsT0etZBaCL0qtyC1oi+By9rWg9g6DkLzVs/9JXpW4Dq2NrXv/71lCVV1cJ9KkixTKGouq8MIATYkKWndDN+7fldwRw+yrLRxvVR1d91BQhFE2ndIlk2QOBicNpbU4AwNheDCHFBVusBEPK5tGAJHn5nQWFl9EQ7ApVlAECQZYFxV20S2h+UnNdKqFs/xe/bWhDUXVBqOQcI+i2lqphNEQzEWBdBf+9lkhS3wTUUwUf+r6IZ8CW2Q3/Ng+uY+llhuB0E2m4mgCAwF8BjQWjKjNcTIHBvYfzz+lol+IsuhvUCCLll0R4Rh9Y2st4+jmJqbfd8XF8HtgQjz7MEh1uDy5RcatoEDgoYzk394RKJORGE7pyVrskC+KgUbYpL37YVQHAg0lCpbfM61wU9TgBhljTYpjEIAAKBMQamb0ND2ipjljWbxLkQ0rC4dQgywZRVa1G2iOsI66bMvS9AkCakwlpbM13fTVp1P7DiyG4ARGQ6sNTkuGeWENqREuLcJp6xUds8CwKTriBDsRpN19B6AoQ+czS2GISwXHUFCCzdVRVum9ApDwR1fbH0dN2+CAVALFcxgHHe+6U5EvzqJ1Q1stHzu/Jt6aMAAmWrb9siBgHBIScvQDDpQTopPa2KsVd1IMwmuamENuW5CFQWZFU3GD4VedyhgUKjiwQzq25BkErE77yI44bzuTKXERTU1NpSN9eKJc0rlCSbQMBWXrSo7pldAYI1TENnARE3UwYQ0MBP103dtu+uBxBYAGj/bQGC2B9CsY4RdunXmO6ZBxBYTChEbUzcAAKrItOyhpdJe5UhhBeFRSnOj3GNz7S8GFkTGgl+lfrLfaUAUKTXNuV5oZl6r3vx9aH2Z5P+112jf2pLAGpja9Ib56WrB0DYY489UirxvKYomEB388CCYM1YQ9E86zvf+U7S+MOycdWrXnWtgnBb2og5ABCA375tCwsCf7WFLdJZiyIWoh8xIkVDBDJG0EOTl+c+J9f7n/bHPw7hMKc0bTRnhU3CFGPjNUH+NoUJ4rM2RgFl0a+qd7tHGVZ+nKZMf1kuBpH2dUzC+ETtMqMvgil4PlO1KH7C0/+qDwqyqWKE1lUEKVbNW8wtC4LTJqtoL51UkCKA0NUUhzaArzUda7MqBkGuvJRGvvp5FoS+qaFN90IABCAeAGRdMw5Cpa6xIEwAYTZ75zvf2ZoHBTMPRs56E+W/w3c8VIExtSHsGfMbJnX7AzC05ut4WKxpvwkgKdv5vgslTr8j5dhv1xT3Z8QIVSkb+qlPZemi3o9GuVtD390j+4eZnhAlEwA2abnR8lTPsnVt/ZNNDiCzrikOgB/lzjucj5O3mLdilkQosrF/6wreBe28Vz2PqkZmyiSSLeOdihahd34QlHcrL0CoSz8VWK6QmGdLtYx5DKtHmcsy5s070JJySH71bVsAhKqHBVryfaSa9H1xPlFNn4VA+cR6RhP/bvQ/t2bkf5e933si6rfJOzyjDiCEGb3PYU1tXAzKCAN3Q7aYg9ggwUyMLf9BsyIwkW+usEgI/bhe/9Qxt5nUZJd+iZkx3VWBG9YFRY0Ixa4AyKZFo3wTlgEE/dT3JgAh36hd+9V0vnIXAyCLFk1dDBNAmKUiTdJl2ygpTedmUdflpvEmACH6UcZvQ8GKgMEAOGW8sajoFcdXdTpk3t9i3EPOQ/J+5lbmOh5fpIFnGgfhiM+yvOStCFLyPRrgIBTKeentIVMoMpSGec07BbwDADLLpFDmFgT3ioehhLCK6kfI2bI5BoKKpxoHX3Z+CNDl4LU266Oq/40AQtXN+QJb1IZYpecCFNttt92aSbHYd1o/gaQ0Z9fTHPnABaXVWTUsjkUABHPOzE6QVwEn19g03AT5BoRqjT00DfQKpoRWDm6BmoEOgUvSHKuE7FlnnZXQtgC7ro0FgbYSc4FmVQCBloPh0FLmnf/QFlR27bv7+sQgTABhlmpaCNykZS4azPWZ5+ne8VEglBsW0zZniJS5GIzO5/gLl0sVb493sj48//nP34IoIYvxUC5H1vJ1BwjLnrbQzph0HBPNlEIgMzfzF5Vt8kB6gRwDSTe1Cix7jHXvU6aUi2G9AEII9ViQQU/9DhSrb8yHvmOSjHkxR0x3Vc1ZB052MzcsCFwMVa4IVfDuda979QpUapPFANywbIh47wNK6ua3zfcTQKin1rwYBPnr1iOA0MRVWf+26YrNQoGQK7KtimWYcxq4jltB1VqxJBGkWIxB4GJQe4GLkKtFK1uTnufeIkBwPTfUbrvtls43Ye2M2Jc+c9LLgtDnxW3uRZQQSECCn/ADR0lUQUL5ITptnr9K1zJFKc5R53dflAWhSKsyn7vPIp0pj0doAhDUDQAoAARpjlXjHAIgKPnKghA1DKosCMYMIAAuhIp1NoaWAwSxOeKHtt9++9quTTEIl5JI2irfPO2tDnDXEnW6YFNRINwj+JUsmHlNEKOKwVVBisV7CXq8pkyJnQcQ4jnAhiJPS4tBWM+ZD3DANM3nrBUtBa4BEOR/CqysE57LGk8eMzGUhiIGIc+7zTX4fFwWlyAsQZmLbGV+xThIKlwJbSwIARD49uZVUhwCIIhBgLbz456rghQBBC6NYiXFRdK27tkBEKwBMRxiEPITKKvuBxAe8IAHJAuPwl6bNc0xapzQ8CYXQ91qm77PKRAAQT0DBY7mtTx+o8rFABSE3Irry+IvJoBQoDSCcCHk9bpD8Lo0D5rjcqC9NtGiFr3coUYmcKkrsiYiEK7veyNHFgBgxhfXEAsqByFln/V9d35/PD/SG8PkxnIQoEV/ciTcxoJQd1jTEAChrYuBX4/WORYAKm1NxTf1JaTDPe1pT1sDO/PmGihQWplQFNCUR1QPuUbG8Kx5Lgan9NmbCrZNAGEMs7U6fQh+54RMSkPTBiDg2XkdBDJMZVh1X/AYa1GdEnFPRctWU4AA9LOQ9m2jdzGUFY2IYA2DBwqYVp33zkeMISigs55N/wjvRfuqi+cdLHPMEQ8Suf9RB8Dnxi0FUvxBXquiDUAQ4MiCUBUrMhRAACbrshjQlQWBO8J75wUpLnMOpnfVU2AeQMCMAVFV66Y2UaANBUIGEfQOxWvaHC/gmPrisctHHXnkbNvttktBinXWiKoYhLiPiwGvpTz0bSsHEOJEssj3lMcekeO5wBxLEGJYOBapoVisYdZfdFGkWHCAmyqNQJnm/SohQr6RMx054l1dDIRxFd2GAAisO9ZP0xgE9T8EEilTPIYWTKqP+8rxvwJ9N2qbBxCiQNLhhx8+WRA26gJY4LjIG9Y3wdVVzR6Vkv3IRz5yLQ3cMczKxEdzjeBzJy7KqIrCVpEi6rqotYEHqd5YFqS4KQFCkfBKbIo12HHHHdNXNFVCRP6nHNIABmMBCAtcn2vjZ/I23mUU6WHOFinrnfNAj2Okaeaqc4ZJvo0FYRkuBimj6q1HlVAb0sYtO3yFBUGTGjcmC0KcYdE2bTZcRGJ3xDKoDLhIELvofVD1fIFa8s9ZGouNuRewZUHoA7LWa2zLem9EwytIBFQpQrTZ6RVKmaJGL3jBC+YCBC49fIWbXDVgmQxd3XpNXQybKkgR9YN5FWsvxGEzcVKg7zH6ZWnSy9qkVe8JCwU0y60xVKxD1fvi4CXmK9YDCzZKzJYF1eRzNzaAoFoZUBmV2/TfRhYQW2wAgvKnfPdjsSDoYzAqAlDAZV371a9+NfMDULg3DtDK56nuGav0/TyA4PRLQbxiEDaLQtFm7sLPHvv64osvTusmePHZZ5+djjrfjLRDE7KGoK9zMbhWITO/uU2lRlKyurSmAAGvZT0LHhGFl9q+c/QuBotQdbi8slQEwcUk5al0Kmdh4JstbSk0wmVpgUF7Cw79nRopUO4mN7lJAmhlTGNsAIEFQanWEKzGNC+LAUNgXRjLYU2x2YORA8uRkVEHKPN14vwVdNiIWiFzrrTgcE3mdHn84x+fwCGAsBHH3lYYFK+nDLDQ2s8Uj5xG9oL9jteOyaLWd8xN7w9gfthhh8019xefx3pwv/vdL2VEBe9s+k7XmQughBWnSugD/dxmquiGXOCS7RJcPXqAEBGeufsg15yCyAjBn+r6KDTRhvDTte0pkIMEWmldHYqxAQQpo7e4xS3W1ksdQAA+xSCMpQ6CGcOoRStHlU5MoA04VpHypje9afvJX5E7pLKKBhfEXGzmX/2IZzzjGRvSvdJ3iua5LKNgGtBAO3aI3mZqYbk99NBD58YgFGnCFS6I3roDvlgSmip1+JN0SKAk3Dx1wDbSMc1l3fk9ZfO3EgCB+ZRpy++yUyUtVmgJMQSc5SepbaZFO/axjhEg8NXlMQh88VUuBshcad4xAYSxz/l69491hFXI3BWbk/jEuuy9996TBWHORBEuAnoJNq5brkwptrKVAFL/11mu1nsdDP3+sNrR5ufFIMx7rzgtFhi1e9o2c2IO5lnL8+KCnr8hLQihJUXEtiCPO9/5zmv0hL7y+vd1iKrtREzXD0MBc8SPX1dqOS+UtOgsBhpkDhD0kQmweAIcCug7E75jlSeAMMyaWMZT1CNxdkmYWvN3OqTJCbFcmBPfqJ6NqFYbQsY+IXy+8Y1vpDoaQEMX4bOM+V/UO7oChJBjcUqloGdxT13WXwSPkoHF+x1EZu07tKns+6Z0Gb0FIQYSqXP+h7z4FrkURCLHgT9dAzGaEmu6rjsFzB9hTKOrMqlJF1pPgKCPghAV0Ck2AGGsMQjdZ2Xj3zkPILAgAIPcl03NvBufYluOkGsGbVTpDNcV0ziQEIGxvh9bXM6i54mgRwPm/jYWBNVtpYdzbUaNHyfcNgUI3svqFcHiAJrMkmJQfg6IlRN3XZe2MgAhBpejprAubDb02mWix3APgPDpT3+68lAtAMFpjhjOMtIcixYEAOGkk05KOctlAIEmdfrpp286ZjiGtdO1D/MAghNDzTUXRFMG3bUfq3qfQEQKmFRYBX7UOfnCF76QBJx9GgHjm41+YQloWyiJhVJqZLQ42rpqfQQQwTe52VkxnaYrBiHqJLimrOJiWNfj+y5ztHIAYVU32tTvWaruVWVBsNgV/4j6+OsBEIDPN7/5zakQSRlAcM6Bg1kmF8PqrOZ5AMF6UwdDnYQuzHN1qNC/pxHsFhVTgYaw2Mapuv3fsjpPQAf8QoqjEudN21//9V+3Cor1josuuigVUVLm3W9pkioyVjW1ghznznIQTTZgl8q+E0BoOrPTdb0pgBnLAigz50K50n+kHq6XBaEOIFzpSleaveMd79g0NTZ6T/gIHjAPIEh/POqoo1Jq7mbM5a+bHoLp6le/et1laye31l64wS6QIfPa1762tg5CPuy2AIEr4TWveU2yEHAjWK8OWptXSdG8yUwqKw7WdgomgNCWYut0vYXCHCVVhbZDoK6a1jMPICBrmxgE5UsdoapSY9dW5mJ405veVGlBkOEganmzFOHqStcx3TcPILz4xS9OaWaY6QQQymftjne8Y8rqwWuKdRDwICm2O++885imfCl9CYtK2yyGMoCAjtLEuXHQu9jELASNvfdxj3vc7LjjjkuXhasjP1VXQau73OUua4WS+hBkAgh9qLfge2MRQqqq+EnfDJ9fFCNaJZCgGI+yo2XNuPIYBIc1CXyqCh4TQc3a0AcguP9b3/pWStGKqGKCosrFINqYOXECCAte+AM+fh5AcBKfIDNnUazSPhqQPLWPilQ5BwBJIY+4g6iBkp/WWvuwDXRBuFpe8pKXzNRCaNqqAALLAF4kYLHYYm0GGCh+HzwyZIPgfYWSKJV92wQQ+lJwQfeb7B/+8IezH/zgB6mcaaSqxML02qgguSoR2PPqIBjvwQcfPKPVhYWkjrRDjDuCXuN0SgyvTFjIYrB5Vd2bAELdzIzn+3kA4cQTT5ztuuuuSTubAML8OcN3HEcMPNszwY82K93QQ+G0Y445Jv00bfMAgiBE1T378jXlxVVqzA97atq/rcDHJWUJwl2fNt03GAWgvzhfYl5lvBBwq2AirQMIrAZqH4xlLH//93+f6h9EDQfAQBbDBBAGW+YLf9A8gCAgFsOuO3hs4Z2cXrByFCA2lV33My9gsDiwMoBAkPtcKqlML6C1D0hwBsM97nGPVA6gb5ssCH0puMD7w4yX+/98xqrA5RAFTCwmi6xLKc0Fdn+rR9cBBJuDH24saasOpGJavdnNbpZ81VwkgoO6RAMvk87Tu/6HAvMAAuYeOeibVROe1ko3CoT714Fv97rXvRo/pC5IUY0JSt8892rdy1gQxDKoLty3TQChLwUXfL/FEuZvgjPyYlkVfE7b5rty/sTYAYIgRWmOVc0YjGUsFgT9VDmR6e/Rj3508lU7jW2zFYVZ8BJf6OPnAQTMWk56ftjbQjszPXzDUCDiAV70ohc1jkHArwUXslyVWYUj3iOe3ZUPsiA8/OEPn8trm07EugGE3LPRx5zSdKCreB0aOY52hx12SBYCi8pvpqNrX/va6QCasCQY39gBwm1ve9tUKGkeQJC7u97rIYJ9op9ozoKgFr1c5AkgrM5umgcQRKAfeeSRyWXU1IKQr40A6H3Wa2iiXYXB6szExuqpeWNhFECuImeTZu0ApQJj8/n2+Uc+8pFUHyHiO7gI2rgu8vezICjIJMamb1s3gKDjqkIRaoGm+my0voQY4/0Wy8knnzxT8Y0fHK2+9KUvpaCqHGVGtOrYAULdYU0sCFJ61rNx3zjYR8aIo4CjKabjYBSpkRNAWM8ZavfuujTHxz72sWupw02e7DQ9wWnBswIwAAv2oaOPHaLjAKMm4V1RbrePWw3fjLgY/VDIS1+Kz8zXc5Oxll0T442x5dUUq55ZBNxd3x335c9r04+y+/v0BUh473vfO9tzzz0bP8b5H0ccccQWSpAxqDfx5Cc/OVWQjYyq3MpgfvH3Ju5NAAG4UDa+b1s6QLAhBN/ZSDab34CC88anYKEtpxOtIr/14x//eCoJK5L4YQ97WEKgmIENytfE/D0BhH7bwUaVRQGAoWlechlAAF5oDBNA6EfnZd49DyC86lWvmu23335b5fjP6589R9vbaaedtnBNAAVy2QlhbjJ/z7MKWGt5mV2AAv8L4eD7MkFR1jfPiVRdz3E6IJ6Kt8Yz7n3ve6d+hRIGQETcUtVnOcjIy/rmfTDGecdCG0ekZBf7LuBXESCFf84999xURK2uBSAJa6rro2/xXfEZ+hiWmvy7GPcuu+yS6HS1q11tjV6Or553DHo8T5qj8vBNmnucHSQFMVeGfX7DG94wxTtV8RYBjBQU8xwxZ1XvtPaUxD7hhBOadGvuNUsDCIiggMOvf/3r0oMjmG4f85jHpE01WRIuXfRRytQMxmbNsxZC+1Ba0wIau5myrQVhHnPpvfJLHoDmfIpqzmNeyipH42IAwN7//vdPAGERxF/QM+cBBJqctNWq1NYqYXzOOeekA55WpVHECB5Aom/zrFBE7Jco3tbluTKWaMxj5PeveMUrUkGiqhYAwem0XKdNGn7NxWDN5WPG51iKBWhzLXg2a6rzLrq0lXMxiMyE+KBbCzXQcXHwPlcmkl997MKuy8S1uQet0AxNqtIcw4Lg9yqk3slSmKclhIvBmA866KB/Nj5MAAAgAElEQVRkzo+GBt/85jcXvi5+9rOfJRBrneZn3EP3t7zlLZOmM1kQ2qzk9b12HkBQ4EbQWOT0N+mpvbZqACH4AyWjaaxFFS3K3AVl7owmtFwGQDD2eWniVf182ctelnjQPDp4tngwZ7Q0aVUAwb3oqsBRKEXcRF2LwC0FIIQGG53Pi9e0RXx5dGYQUvDdta51rbQ5MV/XMI1FlH6OUt2Ta9NNJmPVrwmEatwi6WmweRWzfKOuCm0EW+6///6VGoNjU1lDjM2xqEyP0ViXXv3qV6+btqFPjkydXAyrtbM++MEPpjM+aL7FJkiRTzhM+01G1hQgDO13b9K3qmvwViZn1Uf7AoT8HREHFWNty4dygLAoa2HXeWgCEGQLnHnmmSlGrGmbl+YY9DRfQE1bORt9WApA4MMSVSnQwabgf9VxB9Z0XWQIQDMWaMGqYGNCnwbE78tqEESixbkGkuIrPPDAA1dCS266UJpeFzTjE5e5ADiofw61Np2HrpukaR+bXhcBRa6fd8yp6xxpev/7339tk9TlDzftQ5frwl8si+G8886bLAhdiLhO95x66qmphPdpp522VQ8OOeSQZEEY2sVgj+KVfQIPhySXvtznPveZAUtdhU5Zf+yLEGahBLZ5fhEghCI45Ni7Pot78QlPeELl7cETxKOI72jS3CMGgVwtoxN5B8S5jjxsQ8v8/UsBCHvvvfdsxx13TFrTWWedlfxO0JI0ta4dD6L6jbD3vOc9Z+eff34KCPN3+Nc9HzChTaoqJUCMefnCCy+c3fnOd24yF0u5xrkC4iqkuzBHNRXYXTtHC+oSyPmhD30oHf0pCAedI8ilD0rtOoaq+0KDCBoWAYJiRdZfuJ66mg679DsYoXQmlo3JxdCFiutzz/9v785jdbvK+oGf/mtikCCGUTGKiqGgDCqDEsQIKtLKjKBMtYwRFFCgDBYUaUGQomkqFMUKpUAQKCpjKMhQwIIMsRAFRGQKCCGRGAW9v3w2v+dmdXcPa7977/e87znPSm7uvefsvfZa3zV91zM6FBmSCWjTLiRSIdGq3dNqJQiH09vur2ozfbqL1pp71FSXzW2oGKaMQ2nfVWODcOWVVza2SnJ61JQxgsCDSp1UmQwSNy1bIQjAesMb3tBY5bKcZ0Gvg8S+m06yIAjBrE0oVqxcjRx+Nn/qBrrf888/vzEIA/5pp522kyoGB69bpc2HNfSu3BjaEwtrlWjone9854Fb02WXXdaQMWRrE/3cphN37D02CIISffCDH7yaBEHIY+23kYfL51h9S/0+pFpY/RVXXLEXBIEqxIaj7dRTuzTOMS7lgTJkCT9nHNkg2MT/6I/+qJMgCIBVK0Fw0JKA2o+UmBf+Hdb89kab+x3veMeDd7/73VdJvlNK0GrzjXhH/gMGbLKXxneRZZc37Rkr9lY4uBEHESKhJcmNy4I1xY7JOIStWFlveAqU8Vji357zvrby5vC3daz4Pzy6CJigY+zNStUEbzZYlpEEo40wq50nceFwsaXK9n/rQZ8lndL2r371qyfb2cawRsVgTNijDNkqlPVqg/gEAiUNnRVlrouxse36fUkQXAxJJRSeEte5znUmVdnrxVBOZjXWMuyxr0dUQJODux5VBr9zRMQ3JCjishdlqe+OtWuT31t4FoA28iLY1bZyKyW+svAtFu3mChOuUZv0fY13QoVigsu0eK973eskphaUuWKTiM14m4ee9YAMfvjDH94LgmDTopZ76EMf2kj9NiX1a4xz1AlTxBXx4l66xvohQSCtVH+7CJLE5awMZd7VX8Zjl1xySbOGuLSFFKuvvX0qvU1UffFO+904jGsz9jkYHZaxdrQ9PMZKVUH7EtfGY6hvnoWRZ0LK5v+l7769JySXDmj7fZw12hSumdrahe9UDH3LPuc98StcMqjJSaTtJ303dZ5MIr8GTl04qMt+MKSKaBMElzWBksr1GPiXOJBKS7i0SWEbIYHUhRdeeMCuSyho0ngOAPbUKWVrbo7B6LA4LNFECCt9g2VCYJMmDLKwq7fxKeDms/UIlIQUu3/Na17TSKtik5DRUiwIN5PyRlH/hXlPah+/aF4Y+6BieNWrXtVshg4BrptrHL7zEP32DdwlgfurLHZreC6xQXjrW9/aKUEQ4IaYeyySIvsFbXNbJNHcx9DMLgf3vve9G5suElt+/odRXBAZhrKhsqZvfvObr96MdgwE865mrnG9V6hn2gRbHVTeVKGPfexjq/oQEgQEoVyPEY9CXhCYKNQM1sYmBUFARMRBYH+D1CJHpE40AVPK1giCRUrsNjQw2DB7B3YHu3jjmQJsPrs5AhZS2wYhck9sXuu8N4n9JGtyG98Hl9J5vd3O23FpCNHxGhIhEgRJmbpUDDZ+kgXfHdpvwt8/ngnDvLkoLUnaxjwIEARuc/qC8BwWQdAONiEMkBlbT0l0NBfvKe+bm9QMLgO//uu/frULq99TMZAgTLFBEOFQxMR2UDvnIkKCvM0tJLByMSCE2mgvJUV2Ybj73e8+qfqtEYRIOsQbwoIk6o4S0RW584W9waRe5MNHCoEgCCZzbHy7QBAERGG/QfqVZT8QQBBcTtyk2uXss88+eOITn1hN+ByuvFjsU8hCmYvBPO0Sf/cZFnvWgU0fXkZC3EQ6pl3cGKk5I96M7xKfOyCI+f1hZFuSkiVySZSYhp1CRG8MQqWv/rRJmCBD8gWU0sOhWXWDG9ygwYpqQrZCpR1QrnZWst8QWdJ5E5dWdUnxTp3kZy960Yua+hmyKjxB/FG02TwgVSL9qine6fNiWJogRC4GKgZ2ZzAjgUUappStEYSyUQwR6aUQA+oFupa8lU0ZtqP9rM2MbtjGHsUCIiJb8tY1BUVz9cY3vnEGSpoC2g48O0QQbOwkCLVGijZ4B68b2qmnnrrV3rXDHveJybu8ezxLrP/0pz/9KpeyGjH7mp3clhdDGMC3+xuXVp50RPCM+Ryi2uVZUg5kgVje3iOwFhfFKLxC4D3FSHEbBCFUDMiX9l100UWNBGQTlcWhEIRgjKLWWWz0LYe18a+5ALLuzRAojXWihqnGSZt9uf8tmwmjJbeGJLNLo7tefUMEAQl1aE4hCPS6P//zP9+Ewt1mKed/1/oYWif7RhCmSjZKCUUpxYDJWHyGwDLwZSMnOiIj6UjCFM8I9Bbj7jvskT70oQ/tHEEovRjm7puHQhC2ubDyW4lALQLtTbgkrWmDUIvibj03pmKI1Ls1Nk8OBZbg+5AYrRwFHkvPec5zriJB0JeaPq85mn0ShFpXxpIU6U8E2vPzWLtlROChS2hb8jIWB8FewR6Jzdwuqxjmjl8ShLkI5vtHCgGiXHrc0hDNZmADIemiN00Jwv4M+RBBYMj14he/uDrUsnkgfgAV6bYlCHMQN6fppEsVw5z6lnp3WyqGTewUagiCOBcIwi6rGOaO1Sk//dM/faJkXHzRGc9wN4xFIJSkYCtZEoGjjIADAAmgl6Z7fOELX9h0189ZfYvXcfnllydB2KNJMEQQHvzgBzfRBft87ru6uc2Q36WovfZWXWZbZMujILRtG4QvfOELjVv5NkvZB2uKgSh//ZBmbKpmDi8T4xgJ7OZGXK0hCFQMDB1rczFsy0iRDcIzn/nMg7/8y7+cPbynfPOb3zzBrVD0utKaM6xypUS9/vWvP5j6cnYrsoJEYAcQsNEEKRBcxQFSEgQ2M1zEShclxj+xkXtWjI85JTLuWX+HLQKe049deXeIILCEFychIgrWtPmcc85pgs10jU2Nvtd84V0QuvL4Zvy/jMhY0x7SLgTAe31Gh10qhpq6137ml3/5lxsXvLbL39rfHaofiTGOIvwOpXv2jMvCj/7ojx5c4xrXqGpyH0Ew9uJCOGu5VM4tbBAYQ4qAPLec8r//+78nbIplGM7HPOYxjaGGDsk3QIwijn+WROCoIxAbdViJx/8FMUGikeXypiMqGx9jUrfXve51TUbSIBVceokh+9y4iKultC5/32WAFoF5IjwvQlJT4hAr/ffDBc37/s3NS7TFo1qGCIIojsK5O6BqyJixoV6wJ3aVuFQNYekwiay1m9ZRvidwmLlXxkEgRaAK8zOhdkXR404pv86mt/Q58yNUdO3gd0TzvNi6sA97glh/opia9wj0rW51q8bVuDQwnNo+ODjcI1BTWReSQPVUQxB4N0QchNLeod0e9atXHAREIMYh8j/4vf2C++VYTIuxvpZeDGPPjv3+lP/7v/87IXAFUhCNDj1svLxUYJCxxuTvE4FdQECYU2uA+21E9nTbtBGLUNh34wlDqSAIbYvqdt+m6Ea5YnGzrLW49y15I8TxR26oCH0PKXn961/fbK6kJA4rkRaPaukjCLBw0LgFjgVK2jdsyqR35UG0RiCqGmzMtXJtxDtxaHZJPuLMiYM7VAdBkkuJy1TSE+su6lYnN8fPfOYzTeAjROZOd7pTE9G3r3iX+yC1IyKhzic96UnNhcA+0S4RNVj0RaQi9gjBi0jwER79iHDyc5I1IQja8aAHPahmeAafaQgCUSr3nWBymAyx2xBAs7+cFSQCO4iAhS97KH9oolsJyyTJsWEI/SzS2WFttJvAJXqpZEU2H5su0hPJYL785S83QWC6ogxu8q1dfKeLIMTBJIqfJEZTSNcu9jHbtH0EEAKBlFwkSELMKSGX2SMIHd5XEIq/+qu/apL7yeODpDIeJd2x3yBC6kZWXAg2KYuqGNgg0AO19WqML5AEIqx92hA3ATTfSQTKW41bt3TjDo4gCIwU73e/++01QbCZiQQZNyhqw4j9flRnwJCKQepzKoYkCEd19NfrF0IgX8xXvvKVg4c97GEN6WYYiHQKyT5UPCsDMPWi9M6MNb1XqlqQB5KMMtFVbW9IENQta+Tc0qlioMMiPiFZqNHNzW1Evp8I7BICkjIRzwdBcJCQIMg6eN555+0VYS4lCDC2tm1uNp/jsLb7JAhuaiRDfn/UVAy7tJaOalvCPo9qgi2L/yMKJANjBCEwYY/CgFR+iq5kUOJtqDNUKGEEG3/7eUgrIqeF9U1NIqCbEMtzSydB0GiLJuLf20ym6nnmNizfTwS2jUDobqkSSNUs2pAgsEGQApbx0r5I1Gwkov65rZSGitayA5KxFCOtWjetJccj9NJrZ0YcUjHc/va3bxLYJEFYcmSPR13mr9gSVAR3vvOdNyIIyIVU5CI2tu0w1C8dOQeByM/hb7kU2nk/PEu6aS298Y1vbPKFWNdTMzd2jVwnQWCkFbnCWV0SQ7LU7LKwPh7TIXt51BFADiJ3PQkCFl4ShJ/92Z9t3JmIFfeFILhN2LzCBqFUo+iv7HFUids0UrSHEJ9KOxxRCcNFb41LSB9BoGa5znWu07QhCcJRX93L9888lu2RFxOCvYkEQasQdTkTSOvbJCHcp9XtzxCZZjcobpHLAE8IxpCrEYTPf/7zDaIWkUAWjCVYakpmwYJbMKUsicBRQoB+3oJkTSwRjxjrDo7SBuHHf/zHT6YH3pe+E3+WEoSSJHBvZgy1LSPFcHeT5jdsHxAVGfFgvgbxGrJBsK/xDkkbhH2ZzbvVTmeiQ5n3wqYEwfyXFIrEsi+OhWfYKtTYC22FIJTDwPCCOxRLTfpXnZG0IksicFQRYGtATKeUKgbkIXTW+9B3EgRRIeWf79JxbosguGjYuOhLYdiVLlssCS6lpDg3u9nNFlNp9kkQbOhuWi49KUGon82hhjvsTJD1LV7vyYc85CFNeADi/KkEAY6kd+KqlIaIpQumQEc3utGNmiRxfk7qNlakq+Z96JK/mgShTRCIVgVSilImtqhRO4xl1BrrdP4+EVgDAXPXgorc8ua1g9Rttk0QeDE42Oj41rjprtE//bHJ8Ifu0nFuiyA49EWhtHGF7UEEzQmXQ+qFCI6zpKphyEhRJD8xIZIgjM++IAYs5AUtGhN5j9e430/oP7WAfB4MmKcShCACZawU//7Yxz7WrBUqAt5UZ5999oGEYlMKN0cBsg6FIABCg8WsL0sEsMCK+HNyoRJ5jiEG/a3FuOTCnwJYPrvfCHQFftGjvvkUh5Bnyptz+/mwBg50guwS5XURBDdbh+q+EAS48UYSvvUwJQihS2WtLRKhPeEmN7lJs6kKDOPQ4U69RgKkIRsEVuJuWkkQ+veHWBOvfvWrG2O6iPIXAcRiXh23vd1hLoYGaSOVO5zESOHF0D4b2+hSZ5577rkH8mF4z/u//du/ffDc5z63edT7HAUYJJ511lmNCmNK2RpB0HjJSUoJgp9JHfqEJzzhZJtjQ3YDsAnEbSWMKtgxTGVBUwDJZ482Ag4Q1uZlyGG2MNRd7fCtkGAER6enEGv/4A/+4IGgQLXhwrtUDCQIDjXJfZIgTJtvZQjatoha0Bi3sHa63Wlf6H/aJk5yUbqexX5FIiRwTRKEbvxgA6OPfvSjjRi9JAER0Idk2Xkg8t9xIgnmNONfh7z5a0494hGPOECkhnAQyVQx5xDlKNSB9jc2MepDIux7PBl2miCIV63joWIABKZTEoShxex5nhBJEJba8o5fPdQANvgyqQ4vAwlOugKJCDOKhUdI5Ih2dsEFF1SB10UQxBP4/u///oMLL7xwbwiCtUfFQFTZJT3ZloqhHVI6Yt2L4hg3UBtnl21C1YD1POQ7JAiiYj7vec+7yoXGAUenmwShH+EvfelLB6QsXSUONPOKSFwArtNPP/1YxNYIPEgLeAkJMhgSBDFTqCi7inUgL4Z5+fd///eNGsB71JY8B8s16hlh0NkP7SxB0MkwUmSMoSRBmLNl5bubIOAWKOV4WYYIwnve855GchCSrNAPytBWU0qCIAHTXe961ybdM4MhB+4+SRCkfGWDcJgEoUxbHPjzEuFOuuat0yFm86UaMnZlMSeoQiNi3XEIGlUz9/uecVN2MeTx4uZLqvAd3/EdjYgdEYezmBvHBUfzB8G9//3vf+DyMNUGYSx9t/oQBFkZzzzzzElDt1UVAxHHNa95zSbOdBKESeOUDy+EgNzspFhhGKXaIYLwile84iqZ66YSBAeKDVFxyNCbS3gkjwEpxL4QhF2RIJTpsCPpDlwd0OVGuXTQJN+SztmNrk0Q/I70iQ3EcYkquelyNEZIuiBhjDojl0dpcOp3soKuSfg2bf8a7wVBEEvEPJ5KELQpkiL2YSbGwvnnn9/YIkwpWyUIGCLji1QxTBmifHZJBN761rc2lsLlQhoiCJdcckmTWGlTCUJpvOjf/rgpsGPYJy+GXSEI7JIQAjdOxThG2mkeDtrJWJDboRu91MRLHDTqdbAxOi0JQhxsNvYkCOMr1Vpjf0PUzd7AwRYhu6mFEKzjSBCoGEg27373u29EEMx1lw3zUCmlL9QRJAgCs5FeTinijAictBUvBo1nQ8DKMiUIU4Ypn10KARKEdm72IYIgXofIn3HIWGz07aEmm9ouB4qAQ4yHeAQscXhNbcMmz+8KQdAOKgWGbsaiy7DUoUOUKkOesoSUxnfZILjkdBEEEgQ2CETk+zKmm8yDue+I82883v/+9zcShNLgk7U94nfcCAIpCqmm4Gkh3ZyaiyEMdu92t7sdvPa1r73KugiCIOmSVO1TCkPHxeIgfP3rXz9hUUrs0KU/QhDonmy4SRCmDFM+uxQCCILDw/yMOSr6Hn/sLiNFoUsf8IAHnDxkalQMRM4vf/nLG3uDT33qU42LrsIvmd7VLYHB1j55MdQQBAe3zJUKAyrGU+3D2WZFv8yF2UHr95scqNrjG/C95S1v2XyTIRxJj5toTSCYKXOqjyDEPoaoMI7MSIrjqJoDJAjnnHNOE32THQJJj1sw1RuC4EZ9XIq5ZU+SiwEx2ETFEPPQniMgW3tNUe0jZFMJwqIqhq985SsnDK7UkF2LPgnC/k95m7AbdyT5cLC2dbJ6uasBraZKEBBahDdUDPrFlobBbV+xAb7tbW9rVBklUeatY23424Llv9w+QG0OyhIGWqHfXaKuGoIgEAsbC4VosgyI1sZKfZ/+9Kcb46w5qWT/4R/+4eAWt7hFI01wQ2IFvkbRXhssyUU5333Xn3BzTAlCN/rmIgLwXd/1XYPD89WvfrVRvR1G0q815k1NneYWycFpp53WZAX1f6p4wZNEPqwt3ttpgvBf//VfJ2yMOlkjQRAgA6GodVsEwNJujqEXXmITrR3IfX7uLW95S0MObJJEuaz8GRRFCWIQ/9/kdrgmPlMJghs/lVipYsDQifL6Cl24je66173uVYgy41zBSuRsd9vkCcEIkovSnPLxj3+8ydTWLuY0IrPEoVlDEF71qlc1UgNzwJ+hzK3mjhskqQ33q01L2HiUth6b1jX0Xp8NQkSvc/khIu9SeazRnn2rE37ve9/7mhgH3N3b+y2pG1LpTOA1FDYm+9bPTdoLGySX6hNhDoJgX61N9+y75iJpGonlEhIE7aBiYGS9iA3Cl770pRMOEOxvnyQIgF2CIMTtT31HNb44Iz/5M0gObPL0XXEAxWYZf0cWz00WzVrvdBEEsRFud7vbdeqqSRAe97jHXYUgMFYTzbOvMFazqKR0LteBWwFLZYRYwB12DEvpx7vWG4M+qg5x3ueWMYIgG90rX/nKJgiVeUGSgCD1FQeCFLfSRO8aiexq85ANwnvf+94mxHaktp+L9VF9H4Z89K0LRICazV4hiA/Ji4yYiNZR3Tv7xhUGyIFgbeyTQuWALEwhCEi5i8tSKgbtcvlYzAbhE5/4xAm6JOLTrkHedRXD3FtIiBvj9rQE6di1zaIkCKyPhd8tJQja64AoI2DuUh+6CMIVV1zRGJ912SBMJQj6zlhNgCVWyW2CQCLhxiz7XxjrroUPgiC6YHt8NvneEEFQH4KgP4zPwoBwaKO3RkRWfdrTnrb3BIFtiZtbEoTxmWXczSV7I5LggoE4z917x7+8u0+EigEZQOZhRL3wqEc9qpGm1Bb1uLhceumli0gQnGdsEHgxIC5zyykIgg2SCGkNCYK6ucbUqiRqOgTUL37xi81th7GMbJNTi9uQW4RNnzuJyf+Vr3ylIUpL+2NPbdvSz5MQEY1/53d+Z8P+b3/721/NoGitULfGiqsOf/SQUkT/GMfW3Dy6CIIwp7e97W07CYIDnS49RMfmoO/3qRj03cHMCK+9DugZHYrmr7kyR7ReM67bIgjGhWSEZAU2NcU71B9HQYJANC4+ArXREhKhGvzymaODgLXwjGc8ozEglGvI/+0dApON5WIoUbD3kM4w3G3vhc4igdr6jBTDC0J9pdqOdEeyJ4bFc0tDEByQ8i3UEoS4UdV8fEkbhK7oU3THXbfIvrYhFGF805W22mFSxvyv6eOuP+O25KZEGmSsbYjE5dsqooE5YMv51fWzvvZ0EQTkjjFQ15xtSxDmEAQ3pac//emNkSKL5QgYthZ22yIINhCbGbWC9VxTrGXjxiZj31UMiIE9LwlCzcjnM10IuDwwMCR1dKZwg2YcPYUgeM9Nnx1glw2CJGaIQlfxPLspoa6jhCE6NeUiNgibEASWx9y+asqSBCH0YZLvBJg21Ag0MdYe70do1bhdqicCt3g/WFmI1I6CysFECeMyBMGBIIHWtsoaBEEyJnOwhiBg6fzhh4wU2SB0SRBKgmDhbxpLoRbrbREEKhUujsTFx5EgXHnllY1aJQlC7czM50oEnA+PfvSjG6kBtQLpKAktqQJJo/+LyCpTY1lCpe2SFh5LjEDtP10EgY1Qn6pAGxAEZ1pZ7GP2vEMhCNLg3uAGN2jYd00ByKbZHNtJXuIAj0Pd/wNUYJU6sa6Dw+8Zb1z/+tdv/K+pJhAAg0W8EyJwv8PcPB8Jf2r6uqvPEDW9+c1vPtk8QYPKuBaB41o6xbUIAgOhrtKWIFgsROlckvrKGEHg1ieiGSOkNcu2CAKRprVA/VMmMhrq21GSICAIckFMsUEIg+bAKC4RfZiVYt+uZ9t7VnkL7Kuza0+smY9LGXXXfOs4PGPsEANu0fahCABGouDsKM+TNh5xy48z6iUveUlzoC/lxUDFIFbFYjYIU1QMcYjW3qznSBDYLkg0IyZ1lDe96U1Nx4Hp0JNNSyEu5YmBjHzuc59rYua3i7aEt0KoK9q+/wYqNgJ9rNGR7/qCaBMEh1xErItNKkLf6kvt2Nb2u48gCLxS860uFQMJQi1B0EdWwmNeDEMShN/93d9tjNqOigThk5/8ZEPyuSAfRwkCtZsoeFSUtTYI9gri3jiky7+71gJCSvxsT+EuyOumXai/QppZs7c6kKgHa9ZN+a0wwq5ds/ncMAIhQRAsiSTK/82jyy+/fJKKIdwceRKRQJRlk0BJ2oEg2MsOxQaBj+UNb3jDq3WmD86vfe1rBzZ4ekslDuZwnRnSZUaSnin6TovRoGFl7WIwIoUpa1yR2wxqmUaYTzgjviATtZvHLi+oNkEQHIdeXdFPBp9Y71r+4H0Ewa285ptzCYI5R8UwlyA4UOgY1yzbkiAcd4IgCQ5D1ikEwbgLrkQtsSslvI/kCWFkzXo9CqkYIsGqvS8Q3jb7UdqQ2XcQKJkQh4rYLQ47e/VtbnOb5lF96pN2lheedr2kwfJ9xJ7uLCMRJ1FuxzXxLendhwoJgoitnt2UIMR71n37rNmUIIQXw6GoGPhYXu9616v2HOBWJ3IaEKcc9AamiyCULjcmSnvSIQFuyH0EATEgkUAUqEosdjYMwch3NZrgnIVMykLyEoWh3R//8R/PqXLSuwiCG3i5APxM8KEaCc1cgmBO1MRBkDXNgi3Tq5JUkEqRdrgN3uc+95nU96kPL0kQkGWSNe5X7bUXBAFZpHLSb2uB9K2v2GCf//znN7pXUsehgvg5TA+z6FNXLgZtEvLZPtC1MQ+1edcIQg2+73rXuxrpxdD+22UAru5alUZIXad8I9z7avqwrWf0g3cP98WheAae4974wAc+sImnMYcgWCvOybZUaC8JAnaCIDCsqCl0fCymuTu1eNgAACAASURBVHIoDoS+ydiuj39227qz1AO2J6O22eDoFhnltUtIELhHxsRn4CECmMMLabDxqdfvbbBr2yDAQkS9iE1fg+nUZ9oSBK4zQ/r4qfWPPX/YEoQagtDVh5hr5gUvhrvc5S5NVsc1y9IE4aUvfWmzkfURhNNPP/3AAWKuf+ADH+gUg0d/SZncUq0V8fe7SnxHZNZtGsL2jV9fsiYqp1/5lV/ZewlCzVzk4mwODAVBW8v+KHTrvl2qU7R7VwmC/UKclTGCQKUtIBvvpqkEIVKge88Zc2QIwlQVA0tpzEg8bwczthR2AEOTG3BTb/PEhcDui2NgUGxwooGVPqQ2tTAqCRY3JKrqIh5TdYJRR+gdtUGc+7bVa80GMPYMCYJY6bF5C3TD2nbNEhuO/jGIFJSn7eZIqoCgsajvKiQ7DiUJktrZHJEqRLCrTA2U1He4RB+0kQSBFIxIcc2yJEHQfuOOILYlNSFBQBQFiDJOc+dfzGXJst7+9rc3AZ8Os/RJEPxcuGxjeRwkCFyCHWKHkZSqtKvYF4JgziLLYwThvve9byNtCIP2WhsE55R4Ii7P9kRkldFsVxyEqcmazO1DVTFMJQjAkCgoWBbw40Ae2jxe/epXN6RCEIpND992/QiCCRui7qF6Y+MYEoEHiVhC0qAOWNVKZqZsvMRgoilGYWNxySWXTKli8rOwidsDMkKU3SYIYiMgDqREQicrSAPpj2eJs6VXpi9uE4QpRoqbSBAweu5KDk1qKW0QuZEaYs2yNEEQUIoIdIwghIphiXj6skOaby972cvWhGq07iEVg815kzgI+6hiQAC56A7l2RgFc4EH2sHYdlGCYK+wJ4mxMkYQhK6/7LLLGhuGKRKEkGQHpOaUfX8nbRBOlDL7jknQDrU8lSC46QnGwhhlykGPmTFwfMpTnrLA1Lx6FeoOq9EYmPBRjafHDBTpdtkxuDGVxkGrNHhGpdiqg9dkXsKydagpIfkJ7Pyf7l4o0fKQCrsE2GHPAlhJHMQoKeIVONjucIc7NB4p2yYI+vjRj360MVTiDshewo2zNv7HpsOFJDpYlwi1bD4z8NKHPhWDg8MN02G5lM3ArhMEc5LY3Rzk7jm2zsuxhFEY/206xtt+T9Ac6pTSGHuoDeYNjGK9kroKx9/ev81VP+tSwwYZUFf4+4d7eqiYqbfE1KmxQ9omZvpeI0G4yU1u0uxrLhJTCIK+kKYoQ6nTd8IG4Zvf/OaJPt2UTrtRcDdkmKRsQhAEk1hbl7/JBHJbC5WHyWtS1wZd8j2Y8CNXHCK7WpACATfczLm1bbOYQ+JNiPZVbjA2ZxbFAn3AUTYzthEWTHhYRDunGim2Qy1vIkHwbfMh4s9rA3emPtfKpTBdUoJgE4qNq725b+LFUNvHWoLgoHB5gDO7pqXLkIqB2orLak0chNKdUTvN0djgyzZzP0RuxeIfMtZr6/vDL76sK9SrpKhCikd9YcPl2VqigoSzuB8LIY+kIxFL79X6i+izD0PItMO5QkrnDzW0i1aUOHc8R/3odh0kY6wP6gjppb09jNrh5v9jZNBYa9NHPvKR0aRLCALppzkxlSBop1gFbN4YzHZ5ke0EQfjv//7vEwFaGYAogHbLtjkS9R41ghDCE38Puc70bVyxcQRbDmZc460R6ony2dIeIdoztmmGQaXnSvuJsl43RP+Xec0NfZtFP80hevy2ioFUwOKQflqAEfHxPd9OdkK8L6xpWcZUDNwR42ayCUHQDgGE6OiN77nnnttIQtYmCEtJEMzF+NN1czxMgmA8wgPJwUWyRYpUY5s0Ze6qj5EmSVTpsmZsSaW4OdYQBIcFPTECQLLT3ifLgy32zSFpabnOh/aWck8qSUWETecdVluoeLmay+J605vetDM8fYxLbZ21zwVBoK7jUu07ouH6vzlKpF+GfjdfXSod6AzVifrbpKr2254zXiQgsQ4QJuQKEWgX33GZMTcc2n0G9Z7TRpIGBGYTguAdBtBUFBHiv5xLvm9djHkMlX1Q56I2CP/zP//TSBDc5DSo/TEiNSLP2BiPkgRhyiQbWsh0aSFuK40fh+oPOwyBoEKHFSoOhK2WIJgQckqUG6ADl0HdFJXOElj01WEBtQ0RI6Z/bJalSLNdD3WTg2QKQZClMPq/CUHwDoYPWzYINleSDjng1ywkCG4lv/iLvzjrM1Robp99ZBVBQNxIlWoDJdU2iARBH/qMFP3O2NgUEUNt5G1gDjgMNkm+1tU2YyggGCPdNjG2sbuZ14Ra5tpNzG6PtNZrLgC1WG3rOSSXJJhY3+2d9G6bxWHswKfyQtrEweGCG5ezbWIa0pmh/p933nmNRFNh6NuWqphbJAgvfvGLm2RKmxAEdcd77UiKfu5c4AE4ZR/3nvlKWrNIHISwQXDDE4yibIyP2dz5zEeI2SQIV51WMOIVQM+/K4WXBpXHruj22gQBZmecccbBhRdeWAXZVBWDmz/PiQjC5Ht0hUO5GIYa4tbDi4EdTUjSqhq+wUOIpjW2BBEJV6quzRdBMC4kI0sTBOPK6NQB0FVstm7ibvFuszZsfdZO5JaB2BJF/9nemAttgsBwz3jWSBCQW4TLfLK2tnmYLYGDOhzQiK4LH4KwlL3J1PYxjpY9VIAiY7C0OmNqe/qedyFBprg3U4G0x9yeYu66vMyNg+BC2BdqGSmdMt+spSDgixKEPqAsCn7SIfZNgnB1guDW40ayK8Um5lCbMrHWbLuDiCqhNFz8vd/7vcazoaaUuSPi+SEVQ5sg1EoQLHrW9+Z4GUudT79bz/3ud7/Gk2HN4lbNOHIuQRBK+Id/+IcbzG0yyH+Z9ZQu2LisIUEgwqU28HdXIY3pc20VxGssgl0t/saT1McmXxIEPxemXWwAUqIxvXR8z3tslNrqrr72WIfEwwIybeq+7CB3eTN2Lm8M4pQp5J+huCigU0vpdaDvoQJqE8/auDbt70sU1mXcHWrT2L/c1H3TjXrMyybaEu0NyWRIbNVRM97USvZ0UjiGye1bvHqtL952kjKFJIBKMlIDhHQkpKS+S9XB3T+K34mlYN2392s2CFMJgm9aQyRzi+Ri+Na3vnUijGS6Jl0ShPFlhTyJtb4rZS5BiMUVKg8sfw7Z6JIg0IkKRlJTNpEgWCSlTYZIihbNUNFvt15Sguivw+CpT31qc+DZnKekcq3pW/uZpQiCG6Nxs2HGAVMShLUlCPC66KKLNoFgsXfMX94nbF3aBIFdC2NYRLr2sFWfuUzqoJgv8I3MfLX1LNbByoq61k/71bYLYl/Vc+wU2BwwRnSmwI66hhi/xvCwsquLPObiIsYBOwnB0agY2mOr/YgLSZn9dmkVg45sShAY39rrlvBYO4WRosbQARKptEsShOE5Z2IQ0T7+8Y8fnZxzFtdo5cUDjBG/8IUvbHSo6w8xtxsoq30xLNxmYwFMaUc8a1Nl+BOLTF3Euw6RmjKVIBgPRoqlDYIbswU/lSBI90yFRJ9OlDjkG13Tl7FnliIIbsb0zLCOw6y8BSEIdP36tXR+iVDD9KkYxjBY6vf6zjWVvUubIBBziw8ylyBoa1yw5pDopfrcVU8NQYBVTfuRo7FbfF9f2hIJhxjVX+A3Rde+Bl72PBJCcVvE3+H55XZvHXWpGEQTtYdFZF6EnNqkbWQ9tuc4Y9sSBONBEsH2ZQoui0sQ2CAMRSxMgjBOEISUJYYemwixmZTPxcSLjbxm4ruxEJUF824vbgchI5WaREjxvagjjCzjZuT3iA2RsO8xbKvZSMp+dKkYGMRycaspXRucSHhYfldpR1Lss0Eo533g35YgPOxhD2ticdCNCxdO8rFmcfO3Uc1VMehPSBH6bBDEPnjWs55Vne65tt8uGubJYUsQ+giCfshNwjahK4JdXz/VBzPugO110/f/WszWfK6GIKz5/aibgSIJQoj4EQTeIeFOPOUgXKO9ITn9/d///WbNkxYyQuxai6FieMELXtDs/f4fZ+UUGxp7EMmetVqu07hEmadTXO+9t6gEYSxQUhKEcYLglj01w1tMxpgUfa5TXV+3wFjXx4083sVC/U66TwdZja4t6nejdMvqE/chCZEK23eH4rq329ylYiDl4OJTU7o2OMFfxEKvIQgWIQlC6G/jnfBlDykJHBGEX/u1XzvJ2kkQiKKJEr2/Zs4M7VqKIOhb5E2gR22TRXg4xN/ylrf04lgzNl3PiDHgJrXLBIGnhbEOg66avlqzpC5UNkqZZyDeD4K9S+qGXSEIpFqlDUAQhBrst/WMMeaVIKvv0EUovBgQBGqIOOhdJKaoIX0vYltMvXh1YRISBOqbRYwUP/GJT5xwm6Pv6GpgmyCwPtWhdkhgi4VBDqOacpHwY2Xt6eeHzRC3Ncn28TuMCB0kJr4xk+cAs41AI/rENckhOXXz63Jz7PpZH25dGxzRX5/1fVuCwO2HcVCfP3GIPrtsEBAENgjytcOE3nHNshRBKNVZxMLWcUkSEAMk062OG+CShd2GQ3QXcjEgezyM2nEQqBgYyooRMmU+72Oo5bkEoYsImS/mFeym3HBjnoUNglwDce4sHQdj6pwOAkMlRa04dGCHBEH7qRq03R6DWJx66qlVn3ZBcvbe6U53aoyjywtdXCBLNWmNrUZIEHhsLUIQ3vCGN5xwgPf5xbYJQhiudSHQdaucmnCpCtl8aHEEwvqX/y8XNIu+PWFJSabqH0MsS51Quh0iCIKV1JSuDe7iiy9uvApqJAjEhPTNXSqXUj3TRxBCgmAj6EsQVdOPmmeWIghj32KlbXPiMYEgxIY05bDs+4YbGPKxC7kYEAQi4y4jRQF69L+2z/Y+pNmtsQxf3aWfjnllUyd14knAfoU3CXIiTok1wAbCrTpIat+h5NuxRrU3VGL+9sfvIips+yLWlcskxq6MvdIez5AY2gfiO74dP/ed+H/poRTqSXWXklFSqxve8IYn1yHPoBq34eh71BVugf4OD4Hay2fo+vUnwhwH9qHqYINgzY8RBIGSuECaE+ozjozV9XGswMha967vtvcm9VFpcq8NHO2hY3NVvS5PpDOHQhDGOp6/308EgsiZrG6V3LJKGwfuNibxJkFsuCmyJC8XsU2Wp0FN6SIIXNcEfqkhCDILMjDs28hLb4fYtOJnJAiM+ER5tCGMGTrW9GfomSUJArsRGyLpYLsQhTKuEnWNtTOy5vYzZktT079dIQg2VgcQglAamtl8uaORLE2xQdD3OJjjYPKzrsOpbZAXuJW3ZVb9iAaDYgcB1WDU38a5/HlJaj2nTjEOjHcY/JXvO1QEDusqQ8TQnqC+CNrmWf/W9/i335dujkEkPNd2h2y3W5j6GsLtsiKAmG/ZfxArFxnzWp36HXl1xuZntDvaYv63229tMD4cUtF634VB/phwc2RfQfqKKIyVOPTLcW3HIFI/NRgyH2WMCJlD9jtSkCQIY6OQv69GIBY9kVlEi2OMZRFaQCH+G5ug1R+c8GAXQbDx91nJt1UM3mdsOMa+LVYEwa0znkUQ/MHI3Q5qFv+Erl3t0SUJgkODGLjLClscALd8GDLIsiHym55i2NrXz10iCLyLGMKFqswYMzojPZHpEkkYmxdzxjPfXRaBkJYsMWbqQqC7gjX1/Tx6413ZHElnHMT+X0sQkEFrMlTxPG0EXCoJif2W5EmQwiAwQxINnmdIFBWYLLguNVQXc+0aTpmqYlh2uLO2XUEgbkQhSfB/UoPw8Q3mfRjt7SIIQuhGdM92m9oEgdGcZ8c2FX222CMojf87QARluvzyy5tb5xpJhcr2b4sgsEFwe2Wcqs82GBvlUSIIfTdmc1xOAgGxIijWYczr/Ob+ImA/JFGkvrzd7W43iSCQrEhOp6iH10Hky9kUETY/1FYMru1f1Fg/8zM/MztSZRKETUfkiL0XLNXk/bd/+7cmkQoGqrT1lNu2K+kiCFh3nxFcmyBI7Su086bSD4co0SHfaIRpzbItgkCdQBpCh8otUR/pTpcIwcumwTyK+Ao2rCVuM2O4x+3S/OwynHMrRPj4ukt/7N9JEMZQzd/3EU0SBPGDIt1zrQShrM+cZfjMKJLklo3X2EWmqz3Wm0uQtUyqwb6G2tBct+9tuvclQcj53yCAebLCjdSlbYNTE9kkDNYbro7bgO+wCEJYbztELTYsfSwa41w8liQIrKQZlnapGLj3MdzjmcIGQfY6oskprrF9ff3yl798cM973vOkARnvESFp54o7a7A1T6kUjBNi62bGODB05yEhYeVNXxteWTV15zOJQImAUMskAQxPp6gY2gTBmnPbt07Ed9lknfi+uY7gsx8TryPsQaa40LdHOAlCzvmTUgITiaVxWHyHcZIHwnI5Ntg5k24q5F0EQQwEsRC6SluCQNfMSHEKi7a4GPvoJ3G8RefQEb9hzbIkQSAFQmp4KbX7rk/G2XiHm2PbiGxOP8MIS3/C2n0K/nO+HcZ16gg9r9TIZWwQBMGcFoJ7W+2a06d8d7cQsFYQhHBz9H8SOKpIl6zS8Lk88EvPjjBQtKcK2sUokRSg3Fu7ou+GOriMoQOd8NCgGhbnIwxQ2QT5s0lJgrAJakf4HZNPFMbIn26DtbmKDuZ3S9wwp8J3GBIEhwdDNrHipV6ma7zDHe6wVzYIUsWSfHCXao9bF0GYOi5Dz8dmFZtYjQ/3Ut+PcMBheMt4iwoFDtQd2oTsGWO62iQISyF/fOoxt6gGQkVln3R7J01gqyRRmZ/xrihzoARCDm+EVfwZczPIuSySMpBGnCHGxG21n7WFVDAg14ZYY+Y5OyLJpRgo278U7uB9QeXGRiwJwhhCx/j3NlqTkWvRJmKvpaA7LIJA/M7AURATXhCkELVBUDbt+5ISBLYkJAiMqdrjtyZB0AffFWOAAdcSho81eIYaTGyBPl90baMee/CDH9yo1YiIN9H51rQnnzm6CITtQKioQrUla6YYClKeIxFsADwzVEIVQPJp7jrQI5+Dg70dnK10ZY2YGII8ReAqtllCNKeb4xGZf+1Mal1ipSPS1Y26cRgEoWyogwTLv/3tb98bjXGjjnW8tCRBYIRH3GizaR+CaxKEslvCPSOYSMJhksxoE7URSRCDsJQgLDVrj2c9Dm4kuB1QjmutKK/WsiR11772tasAkppcvAqSh3ZY+KoK/r9XBJKCbCRBqEVtx59bUve7413dqHl8hIneyrJNLwYEgTSBIVHtYt+oowcHB9QCRJIhHty0Hu8hCHyuqYe2KUEIbwIbJ0kCy+xtqhgCs/DMKdcX8i1sthseY0pW6KlimDPLjue74ebYRRBe+9rXNt4EEVFyCKEyEiTjWp4Q1ILhOjmVVKuPxJBRsL+VCGa1iXq4SsUgQMzc7HJrTKOjdNNOktA9Q+DCZQdBKI13SoIQ2IXRTxgpxsYfbo5to57aOSlMrpsnVz1R09YswqkSMxJNzi2ixDmguxJMrSlBYLdxj3vc46QXA3G/6JxTN7u5/bdBszVAtspIewxOiX0///nPpw3CXJCP6ftBEMyjdgREdi3Uks973vNG0Yl4M+aoOmVyRRBI/TaJPeMddfGGsF8JKCdaJYmGiJ1TSxVB4DM9JYXl1EZs8nwYIB0V/aGBHYvetQlO+/yOSI4WjANHfPQrrriicdkTIjgiKZaGk/5NbGxhPvGJTzx5QF1wwQUHZ555ZnNAwXhqchkEgV4R0Vg7DkJb3TRn/NxuSBBIPtplTYLge8YpIl2GUdW2CYL5QLURmUoDA2vtQQ96UEOe3LRSgjBnlh3fd8VBEIK9Pa/nXFxLL4dNkDW3SQoYN1KlicQoN4M908VjahkkCD7GgpLYcwmR59TGdT3PrxspoFu10XfFmV/iO9usI9I0b2sDjQ17kz6KuNdllbtJXUPvuP0hpsb35je/eeej5icXRgGMYMcq+ElPetLgTZXhXm0OiPgoFcOll17aGAu5Ga9ZZBhkpMSFam5xuyGR2DZB2JVQy7FZ9hEE5Ik4OAnC3Jl2/N53kHNL5MWwiegeYuJw8I4qk9bJocBmp1TTdSVz6kPce/ZnlxkSBKHjn/zkJ29OEC699NITLLO7sjn6GP0h68htHV5jU62dAGTs+bV+7wD77Gc/29xCbDDICvLCB5arSZmsRBtC11Qr8Yj0vFNwL5OOrNXvd7zjHQ0zNTcY4Uy9jde2S93cK6WgDl1a+902QeCOyK99CDNJooQ2nVIQBO/d+973bnK/r1lISgQZ6uvzlG8fFkHg7YFMieh2mGWIIPBikOTnla98ZRKEwxykid8O337SRQer88kesW2S55KFCL/rXe/amCC4fItFUp4JLgakWor62T5RDdSeA/CxJ/Ni8P4555zT7HeSzK0iQeDXaSBqGzhxvGc/PiTOiSAptYfylMY4wAyCiFWKSWrS8rU2acMVJXAL/XjtREYy/AkmSZ/MspULi/7IONYu4hcwdOkrpfiqS5QVJMb7fe0s9f1rEgTfobe2iPqCE3URBEZnQ2VTgkBtwe5BQqM1yzOf+cwmedIS622MILgUCKYUgZKW6hcCyWYEoWqXco75XUjP2ms0VIjGuB3Vc4wIx57gOWvIJivvRBR1Ssjl5seN1Ya6BN5L4Zf1XB2B2K8iZ4j4AWK1KDxljDM7k9r9dS7GYg4wJGSfV87dsbkZ3w1PBYGVRFAs52bMRX22F5Aq1M5PcxsWLkq8GOyhDKtJOsJ1ckrfR20QiCvcjGsbOOXjQ8+KUFV7O41JAVCHtNu3nyE2Nqk1CAJJBgkCBrgmNga8NGAMwtDlW06kJITuEEEQOQ+b7EvFWiOhiUA0S411Vz3Gkv0BItSnRoKFzSEMGC1YiZW6XOqCoCFYUyUIbBAYStJbc3Vcs0hNfNZZZy0yp8YIglTHbixLEwQqjYc85CENXmVxg6EajOx51g/i6xLStUb9HAktQ3xba+yh2umbfSfWIeND6iljzlaFgVa5CXvWPHDIsE1BFMqDJYxhg6S0x1tbbfAszuOPOvzM/uM9FwbPxZ7UJkbqjDTGEQbaPK/dS8o9Yc58rNF5x9ppX3bal6CuQ25O28p3zRsqIUQvSGP5+9gLXM7Mm7WL7zlwzbPynDIHXBzjclfGLCjx8RyXRh414RkldTSSQ0qpfvsOieJ97nOfk/PTHockwYOxrefaRpLWR+SImIvDIEEweRCEyMU992NT3j/33HObNLtjpTTq0l6Hl8ExAGeffXaTRrN20Y19q/y979AhsWpfo/4pbYlnawiCDbfLhmCKXQLCaFGsydaNpTYRAw8VG3NIcWwgJA6lt4P+qisWsXlhE5lS5GNHEDD5td0ct0kQ5Jhg37E0QSDaRNrue9/7noQZ7qy7ifbjsLR2qSLcdtoljE/tPeZZGJeSkkm0hOhGQQg877BWWJBLfmMjjcOtrN/8cHjzURexrv2MOcXuiv1GSCHL94MghJSPFMZt1t+3vvWtm7aYM9qDMOijeVzuE/rkOxG4qQzNOzY3Y353ta39buzfQ3UibkN69Dve8Y5N2x18yLd9T+bA8mLWrh9xX7KwyhchsCs1c/kd82WTNT61rX02COaSJGXym7j9kzz2nQ+XXHJJc0bZU+K9d7/73Y1UwjsMCxkah4uwfiE/vh0GuF3j5j2qDzYSc8spr3vd605wg5AbvquYECbxtg9BusEuEeWUDgtY8ZznPGeVtsOE2MYGu21s+jAYIwjxXpdaZo7l7ZQx2fTZkgjabCMU6ab1TXmPDYJgTUR20gSvWbZJEEi/HGo2syULFcMv/MIvNJ4kUWyALL5tciEReuMb39jEI7Ap1hbEwOHkUIt15xBWL+MuhzeCMJQ9MlQMDhObdBfRdXMzx9zyagssSefc+Oh+uXdGXog1yXRt+9rPwcEhIl7G0B7m1mq/kwzIgSSMLwlv1ztiSzgUPbNG0WbRL10GrEf4souCuzPMPoEYrr0/mHO+D5NS+qV9iIw8MVMyo4YkQPuDEFzrWtdq5nlfJFLvkAIaB9I4f/yMETa3bGR1bjnl9a9//Qm34C4jRZVvmyCEWO8DH/jAbNfKJAjfNo506zLp3CbCH9yNLGwlTMr2bcRGEBOfxABzH1LVxK1wrY2wVLX41hpqo77FhCAQhVuIDAjXLNskCG4uJGG3ve1tF+0SCYKD1U2/TRB8055C/ccYy81wCkGgNkFAHEBhCGyuOphsyP5EzIq+Q89cEsLWvH7Na17TSRB4kzhk7CFDpRS/twmCdNprrYclBkzbGZRedtllgwSBd5Bn3Wxh/dCHPrSxvm/jG884OMckf5u03x7l8Cf5sY/5ExlXGYv7v2ecHUjNmoWECS6kV20R/xSCQBrDbg2W6ol8CtqOIJBiTSnGgCs22wYqiLnllCEvhhqCEBv3UgtBfQ4vDHXuZpwE4dsEAQ42VRsWpm0ymngWlA3bMyQ2bn2KSU886vfGgyuh9x3KNnU/d/uL4uekUAy/1iwx17p0kGt+F0GgYuBPvITYbqit2yQIRPtPeMITmnmxZGGD4BZjoywJgtgLgli5/XE9tJkLCNVlcNvXHgaHCIj3EdxSF2/eMmhlhxMShD6SwJXUvBWroWvvmkIQgrAGQaBaIUGA665IF7vwrCUIdO0OHWs/RNqlGq8cY0ZxdOBSjS9d4EyCRFKA3FEtkmxoEwLPHoDdy/vf//7VCYLvm7sO+DkSBGcdkkMFijiHSu1lL3tZYyvF1mBKWZwgvOENb2jcHGtVDG1C4P81ISVrOxmMnA5l0xSV8a0kCAfNBnrRRRc1xlplIaaz6G1inrFJB+u22BAHomC/MxbEuhaiRRrjXW5+bEZ+53d+p3aYZz1X3tr6Nr4lN+awQXjWs561ejyQbREEYngkj0HUEjHby3FwK5W+towZESoGOlQbu3lEDGsjnCJBEMdCtjvvhZ1CeUD5DuMue5r52jUPQoJgM+4LlFRLEMp+q/eXfumXmrVGFbVNKdcmC6qWIPzET/xE43ZLHaT0NUEdawAAIABJREFU9Ut9axOEuBzIlogMhJGldsXeZG9bO7Afcb61Y2+YQxBCYq4OOFNZRB+nxD8o18CiEgQEQb74WhWDxq8p4lU3Vgh4gM0paxMEg4nELCU9mdNX73bZIPQRBMzXDayGIES7hkS2bD22RRAsHDrAcHNq41bralSLd0gQ3Ar7vllb19hz2yQIDmYShKlGm2N96JMgmHOkT0SnCvXCi170oubmt+1CgmBtIClzJAjtdiMI3GFJEZYkqWvgU0sQqKDsxaLyDZW1CUL5bYGAEDGGk8Jpw5pHgHZary40a5YgCL7VTtY0RcVQtvGMM85oVDdzyioShCkEoWx8sB+D02bzm3YyVAxuAXMIgnqIhLk4rbFQ98FIEQYOUwFr2uoa+kTWydyxxiQIYitgy0PGMtskCJvOrU3fQ1bh59a6hOHPUDu2RRCI+42rTX/p9dFHEGzmvBjokbkXUgWwbZmiYth0DMv3zHcEgZ6cKrMkCOGxxWMFcSKtqC32wLvd7W6N9ICNw7bSXNe2r/1cLUGgYuB6q2+HRRAuvvjiTtKlD+xSnGFxuRRYqIx7sSk+Q+9xkRXB1T5ajrP2bEoQnHfUI3PKoRMEt7O4oYW7T6gZauMWjAGgPoYmcwiCTUiIyeNMEMZw9vsYuzLfhpseiRJRsLGmb/Ncn6TEM6z8SRB2RZpS0/faZ9wSzjvvvINnP/vZR8bNkYpBjgv92hZBoB7gaRDeBsIck8qQxG278DRgoAkDc9b89gdp2SQYVtg9bLsfc75XSxAY48lFIkV2DUFAKJb2YmB7wBAVQQ8RfLQlpNph6DcHk9p3SRB4/7g8tAkC1ZrLxBQvBt/de4IQi0hnSjVDmWTIM8qcTWcJguDQwv7pxtc4tPZBglAz2UNi045AyDfeBDfORHcWRNvTIcYYvgx25CGfM+417T2MZxAERJPO061hzXKUJQg2eSoaxNOc+eu//usGVzYu2yzmNImQC064OVoH2iEQVszhWlVV+KUTNS+x/20Li7UIQrihLtmPsDVg4ErixKDa+JGQMuTTF8GwtrX/8MIxV1xk2yoGc4vxa8RkiYtYSUS7PEDYTey1BCF0TDoXLM6gGDSGEQaRJXGfwWPNhIkFVkoQNll03vnDP/zD0eQ9NW3qegZBINpivT91UkZ/ot6p7/e1uTYOwqZ9Pq7vRS4Gt6g+W52lsDnKBCGkVXHj4mLIq+EwVAwIMLffSNZESuY2GO661qSb81ginrjMBJnwt5tg+LIvNS/WqGctgrCWF0NggBSQ/HCjRepILEq37DWwatfJS4OkQAyGtpEiN1Dqq9NPP/3k73iFMQJ3mUaM22eA+p/61Kc23hhzyqGqGMbC8Po9MawIUpuWYIp0Sg984AObaoCLlbZFS35nUbNYbhfP0r1rz1oSBHYSt7zlLSdbK9uMIrzrkmKxJAibzrrh9xAE2DrM2uGDl/7iUScIZbpt4Y5FOt22isHewHMjYtbbH6gkEf4gMSz2beixB/WNs/2K1XwUrmkIwlAEvaXnzKb11RIEBz51ba0NwhoShE37uNZ7sGO/I2JoGd3Rz+0RD3vYw64SgllMDWHNg1B2eYJ4T+TEOeVQCULNTd4GJ0iK4Dx87kP8BpA1Duo5YDJm4eplsxD1bEqx0Un0EhmyGDe5kfj/JlEJQ4pQuu2UeHcxTu1FNNyGECoW4YwFsyyLABLKaE22yLEDY+6XlyQINhvGVF3uwodhpBjYxFx/4Qtf2HgRbJsgWGPWjLUjFkR6MQwHSqL3Z3TJwHSohISZ+H+TzIFz18423zeHxPp4/vOff/KCGGcdrKRZPjY2CHHjNQEiMEUXAyJeI9bnFvOkJz2p0V3bXBn9CMyza37B+iJmOHbHwHIpI8u5ExWOsI6NdEkpw9y2Hcf3zWExEBCEdjyJpfFYkiBIdkU/y6ugXXaBIPzmb/5mk9J72yoGGzkPHuvdBWFJgsCQD/GgPllKdbj0HIv67DNsamoiKZKWtvdvuPnjslSSP/iWP1ur/YdZr/1ZZlgkoSwIORUDGwQXxqEzTx2lVD7iIIyptcZI2qJxEGpCLUd0JxNKIgqTIjKVRWP9zO/5OBNHRRhUcb6FkiwNNg5zYMtv2/QZm1ggrJC7khgdRluFyRSYhLU3wy6YRkKiw2jPcf+mzdFc4eO+TxKEXSMI9gIBuL77u7+7kbLBVAKnKYGSlpqLCAL7ITfArrJJoCT18Mm///3vvxdxEBxO9hk5MnadzCw17kvV46wjASsJggNffAaqqoiOWEacbEuB/T8kxp4jTeN+OyRpZ28hhwo3zr5olsaU++UioZYvuuiiE0SQDAu7Jgn9ClG84qYd8Q5KC99ISOKZEK/7W8xs+lvWnqWeJgCoMeQpb9IxuF0/22Tghc+NzG2yv41lCqv5xhJta9cxtc6pz+tXjfqopv9H8RlzWHRAhwmCsOZmuqQEgeTDGtwVFcNnPvOZhuwKlsTlkZRReOJtSxDMUTdnxpIIypISBCRSkjmSpjXnyRLrzJqPeP+73tYl+rt0HWHzVR78LtNhX+YMJHV0weDlJYooW5dNizHimuscRkBCnV3W59t+vhhB+N7v/d4T9O9u+GVHLRqLx89JAPwO++9yz3CwRpjLIAtETCw9dYgtQrkI3dRL18g2YKQTIaHQYaCHdbFnS+mFRb6pOCuyy2mnDaNPz18zoNiaBB6CpOirdjlUphTfN/iiBJJo8LPlzUFfuknQlS6G2deeCBATIrFdUwdNwXHpZxGEZz7zmY1Vsih5a5YlCYKNSRKbXSEI1B3WhhDeJGOstoXm3bYEIVQMjMYuuOCCzoN8jgTBXkD8vOuHrr2aOFp8gV1v65prbpO6zSH7gUBbr3rVq5r5LCppF9m84oormsuntN/Oqqm2CVPat7iR4omBUxEIDlEd6yteF+vfxrlrRohlm7lf8rl2EBJtTomQFvVYUFw6I8Nl7cCFW2hpgDjlXYlp2uKiTaQE2oF4EPGGVKi2HZ5js4G5tot6GUdiyF1liHiJ5KhOpLFrk4p3Y26VdQUG/t5k7rXb1fUNbXKIMaSTAnjtZE1SJLPjWWLDrjFSFCdkU9sb66EtBYRpZHMskzVFgDW/R/pdHB796Ec3+wuV2rYLuwwb9dISBCoGh4FDY9dJtv1IJl/zZIn5tu0xPMzvmceCjLGjoar6oR/6oSZWDLfLPhsC+2cQhE32q5r+bpUg+JgbDabfLiEp8DfdidjjDs61Ol4DTu0zmxyutXUPPTflu4Gvhcudhu2HyRXeIFPqKtvEWHQqwSkJ0hI4lHXExlQjvQmi1X6/5t14hwEtbG2Ofe+VP4/2uYnbSKd6u0zFaykJAtIlYRLJGL1lHFY2Kf/+p3/6pyZR0aWXXtp5OLR9u7sw75uDJAXCFCMeiHmMm0yLQeaMAV9xhItfeI2ErOt7voHwdu1PfhbBacoDUD1u+DJD0iO3JW2wMw5j6Z5LghoSzj//8z9v+jJFxRAByOYe0t7X9iBh7b3Yz8vEetpsnNhh1ZCZ2H/Kds5tczlu6g/7tqnr5jCe58pqXyZtivwi1lx7rpXSb78LNf0abd4ZgqAhLHZtQBiTiemWhTlnmY8A7wrhixW48i12MyH5WHJRzm/p7tcQkpuwj4mNvRZHz7txyh+wdkrrrlv5JghHPdQMN7/5zU9Woc82YvYADF+pDbuK9z/0oQ9dLcqhEM2RSnmoXbCWJly+hyAIDt1ys4z3a8hueRiX3x1SMZY3uVLypS6x/bWL5LMdIVT9fhcY+puUlIV6V4kIiuqNP7EnRl0kJnF4t+uwtnlzPPzhDx8NzBT1BYkNbP0foUEA7ROCejn0eaAhUUGUqMpiDLx79tlnNwdcmyx3kec2QR9bP74feNTM4fDe6ruBl4Sna8ziG76rbSTfXZlKayJkxvjBCq5RZ3wDzo985CMb13L4MswnQaCyakdWlMeGwTkpKzLGRsAa6irtcR3DuKsOa3oxG4QhFQMjJ+46JlC76IjJJiBEdEImKkBlmY+AfAhuOHyKoxA9E0FvMmnmt2h/a2AYBE9zWewKi0fIXyqRGizNdUFzvO8WfBQKN0eW0OyDakpIXGIOhovb0LvyLMjPAWOuX/aHGrxr2jPnGePJ9Zp4uC/4Txxs+kkt6dDdtO1xM46b/Zy2e9e+zFI9SEw7xgyJilwIfi8YVah/w06sPMBiXEtiU3OA1vQBOUGsu0hhzfvlMyR4DlkXJweyg7avxDjFbb3r7BqTOhpz3wmSQx1F4qX4m93GS17ykoYkXPe6121+Ht9tSyD9XD0hgQk8qKs927avCyJmzsFwSkGYEX+Gv4t4MQwRBB0i3mZ80VUEGSmLjrHazDIfAXpvC7s8kDBU+tpNN6r5rdrPGixCRJYLkmKTYQgarkI1vUIQ3La6biQ17+/aM1MJgtu/A5UxFn1riKeHVIpBEHhS2LR2ad6SBDl0qDd2qV1D8yRuzYzeIu+JcXAolH1wg3SAxeHvsKNKQJQ9W6NO2LX5uu32MD7sI4/ORKoE3irU6wgX/Keq10nYjClpxKYl1EYxD4y18eXGu4Rr/ClDBEFcaMlMumwQNu1QvpcIbBsBi4hhKpKgEPHZLInea3TfFp+bEH09C/yjUKYSBHHvX/GKV5wUuzuAhEDvO1xhLs+BW0yp4tgV7IynQ5Ytwr4UHk0ktDEHHUjCPLfj97tUuEyUkgXjwVuL5GwJd+59wWxKO12IBfezJ7A3oqJwgLsUlPP8L/7iL5pYF1TADG13iXAZZ3ZmLkCrSxDozCygxz3ucVNwzmcXQqDUFdbcckqx6EJNODLVtPXcpa5vrJOeFcuDuPy0004be3wvfj+VIDhwiFIDR2JWHij7WPSBPljsF8bV+1Jk+tN2+V/CpsAh1g50RDXZpToiMaFPr9lL9gWTJdvpJi8fApV67L3inrSltgxQqdfZpczJO7Rk26OurRIEjAqDwjinik/W6PxRqrN9YJUDXBoeRShoIsJ2Kevw70hclWO17EwJGwS3BXHWt1nCsHLpb04lCEt//zDrg+kZZ5xxIMfAIx7xiMNsyqRvy29DTRbiZH+TJkgQlWU+Ai7E1ri8NkEQ2CyJjNgmVX5/i1vcogmCtEtlcYLwrW9960RfREPGXHSvLHBTLLXsNHAbkE62PMzLuNyhPwzr6y5f9dKYKKQHa7rQLIvA/tQWEgS2OIKjbLO4vdiIll5/x5kgGL873OEOTZhcqpMsiQAE7LXhXh7rrS+DsZ+L97HtRGNjI7U4Qbj88stP8EXu0sXKykhP1+XaRe8CJAYacSh13Vw1WEjV61//+k26S65TdCTtUrqghXvREBgxmJ5pR1KMSIvtfBFdN/AyOI42cA/SZu4rdKeiGY4V72nP0CYeJMwzXW48+hzGRL5H3FUaH/lGWMGGy41c5G5BggxFP9a6cY5hcNR/z+iHoR7CvHQxZrJFsvUxj7i8ibfAgtnv6BLnJHDpau9xJgjWN9HxPe95z9EUxkuPddZ3NBCw97IH2XYU0DH0FicIQ0aKU/S0Yw3P3/cjENKCIBH+z7paJLoQbYk3oSAH4nqzpEUi/J7OMaJdIhniwff5bHeRpKGxQQ7FzbcY4pDSPt8t3az66gjySAISJNS8kkiItTUVShdZ9LMhXWmoV8KKN/5fujb1ScbieyXufa5d0UcGjoy/kATt/p7v+Z6rBdhRb6yZmvmO8EXY8QjPzXiSoRQiKcQ5olBTp7pifNTl/30GmOYNC+rv+77vu1qU1MBhqv1LTX936RlGq6eeemoTy+UoFeMeroBsRIwn2wPzSlhlv/O3EherGkPdo4TREn2JGB+CJe1S2TpBSIOW9YffoV5GoeyzT2i3hKFV2wW19t2oa+z58iCOuVAeHjXolIQinpffgL82y+quUn536BtBCDwf36lpU1f/uw5i9Qt1zXhJkCC2INpNIrbU2kAEuQcjeazrubhyDeRO6Hv6hfQNBYeJtrclSQhlRE/kO64uf9SPtJW2LaGmCgO4IDxtyWBID4dwlofkxje+cXNLl/oWweX1UJKzIIFDOGorw7q+qIBdUruIlNkObuN7MXcRPeuO5GasBEksCXzpaz/2fkgDQ+LaN9/hX2LfV2+MoWdLyVKIx8VAMLYIgjpdFhiVmrN/+qd/2rirxlhH35aWUI0FPRrDbNd/b/2ImtlO93zY7V6cILzjHe84gUkLJCMu9xQDt9jEw2gmFuDUyVYGmChvgpuCHbegJSQg5UKaeiC0D6zYANr9mqIWKPs0dEsc+sYYKdgU96P8HhUDY7ClbRDc7CK8rPnlEBHl0GFqfAWHiXU1ZW2WBMhBSFIR88z6EOGQHn4TT4TQyw6NdznHIrpf1/Ol5KP9+8AjIhWWv9eHN77xjc2foQO3/bsIWHPllVc2BycV6lBB3INwBP4lKa2Z82L1czujDoR5Hw4xD8bWpz6E5Kl0sQtyoX1iJbBdUZfQ1y4SAvu8/e1vb8ja+eef3xhomhNc2cf2tpg7seeMJcjze3V2kbTov/YGYSvnaw2mnkE+2cdZI23MxjCM/iCYng3yNoZDtE3/xKmBXXkOln2r7UfZ99rvl2dL+Y62IIguA4u4OX7jG984ER8wmFN8OoOxxkKOwyvSXdYCpLNitgNbbHT/Z/8gudImRXssSGllI0vh2ITu+44+CjjBB7426lzUFcadcfMoxeyb9Ms7MJ5KwLwXATQiO+amCXo2bfc+vwdzN2IEoUxAtEafIhxveLKk+Hd5lO0v3FbZGDkoj1JpXzbMJ3tX2xizJG2I0pgRbAT0CWKy1LwMyV+QsCn7krMqzppSRWjtIN5DffKuZ/QnCuxEnjzrrLOqpoRYCC972cuaZyPionbY92vPG+0PKV/Y85UfD3zaDeK9Isqui/3rXve6q/RBWnptI4GcWwYDJc2tPN+fj4AJQpSFJSNRU4tFIEwogrBJQW4ECqEPryEmwcbLOOzlIqxpA+O8l770pQ0TDhJa8148ow02MJtjkNeIVjaFAJffFCRINkcBVGDiRgbTrkRBQ20tJVKBkefjVjq2UY/hEPWEe/LY812/jxvRURUT699v/MZvNARBRLyjVKScZ2NgjvojuJL4FZJzCS/NuE6/heKVeTLLZgjsqorBmnWxvsc97tHs2XNLEoS5COb7xwIB3gtCi28ikl8DIIRHRDdiYwF/iMznFGSF1K1GBz72HWoY3kCbqETKuuM2OWZsWhJDB6TS9oQiTYyMe35PcuDgXFplNIZN/v5oIPC2t72tSUwoTkJfMQcRCSqeWFdhQBzSAlKLsAWiFpAfxlqMi5HfRbKtkPQHcQ8pTik1ChVQqAE3vRBFn5IgHI35mr1YEQE3Tj7PxIks/3ehxC1/CTsb/Zlja9MnhdgUp5CC1Opjy+/QscfmGtj4/Y1udKPGaDKKjZ1XShKETUfpeL8neJKbOoLeVxzcXPxJf8W8UWJuxzueedOb3tRIInmYCIVd2pK4kDCO9l4YlJZrPuw8Yg2HpJitCxuTsGHadLSSIGyKXL53bBCwIBl2/d3f/d1VdJbHBoAj2FF6W0RibZuSIwhddungoHHT5tkkZklfsW9QRUrtXGblLZ9vG9R31RVeMDUSuTD65JpOYkZyNqckQZiDXr57LBCw0Bm1XXbZZVXJnY4FKHvcSZsoux4baEoQ9nggD7HpEmRxPWYkOEQQHv/4xx/c5S53aew/tlXsV6985SubIGDsvzaRxEVbkyB0jJoUnlzNQqwTAXUC6FJP62f+T7TjbymEIz946IbogcKbIlyZgjnye8+y+wggCPSOU6ysd79Xx7OFNlDi1zvf+c4Zavl4ToHZveZGKluppE1jBEE0XnNtW8X8lkjqXve6V2OgPqckQehAD9t785vfPIt5qRYpCIv6MBZ57nOfe/KLjFIYc2XZfQQYKbIAr/Hk2P3eZAt5ytD9pgQh58ImCLALeM1rXtOkfO4rVANUDIKgbUIQvO9CyeCQQeIUg0Pumve+972vEq5/k34mQehAjeGJlJ5zD4O2AVn4tPr705/+dGP0JrVolt1HgJEiFcOURbrLvQp31NBr+n8EtQn30Ii5EbEZIrBNSM1iPsfP4/22EdUu4sBIkTvgUU/WRFIZQYuMQ8xfPy9Dp0fgnTKPTRjCei/mSen6GpLV8DIJ49ByToVh3VFZNzGXEYQXvOAFTYyJvmLdSBGPHEwhCHCF5SMf+cgmVgMyK8ukWCw1xbiJXiqV+VyJZxKEHoLAAKXGKMTrm1iSc38RKlnI1yy7jYDxJUGIUMu73dq61n3qU59qDkeHZIRwDveqMHQKlVps8jYbm5XnQs0WkQmDTIRazeEjn0hXmvK6Fq73lLZqmz4cdQmCsZUkL6Lq6bufBUEIolgGPiqT8MX4IsjUpx//+McbwzzvsZSXkyT03IgIlz6uev54xv8FvZt72VpvNmxWs2RnZ555ZnPR6yv6r+8kCFNtEGAbYyLvA6Pa2rwhvvuFL3yh8YiYGoOm3ZckCB2jK0iPJEW1BKHNnGumnGhbSELYK9S8k88cDgJHkSBICCWuwznnnLM4qPCiOuPiNVcHunjj/n+FpHdyPJx22mlrfWJn6n3Uox7V5GDYdrEvvv71r28wrt1Lt93GTb/HHomKYQhX6+B973tfE1+kJitwX1uQNISW0WFN8V1RiYWinkvMkiB0IM7CmYqhRiz2uc99rrldYmyyptVGwnv/+99/8Ld/+7epYqiZ8TvwzBlnnNEERZm74HagK00TzD+BXkixuorNXSpb/t6KbJa1m7x3uYQSqy4VkndJ3Gygf/Znf9a4qc0VwS7ZrrXqEi1SCPttFzj/4z/+48FNb3rTnZwHc/D44Ac/2GRE5aXQV/RfYiwRK6eoGNr1TSUI3qdiuN/97jcb9yQIHaMrQp188TXuIUK2+vNTP/VTo/G/y09hloyknva0p82Zp/nuFhAICcK73vWu6kNyC82a9QnqEgmbpA1vF5vfbW5zm5OJdMJQilpC1MaxdRG66TKJ26zGrvDyBRdccID01VwCVvj8Vqt0SJ133nmTvxm2KF6MAD9TCPJRDdUND0bsgm8N5TuAHwLBHXKqiqEcLHOUimFKaGyeeGwQakl93+RIgtCBzItf/OKGIIzdfsLI0E1LKlVeCbUShMsvv7xhoE9+8pMnL9x8YbsIIAjcHInlj8qBgqASkXapGD7xiU80mQ5lHwwLam6BXLtIHsYIgtFBMmSJHVtD2x3Jb38t9O7yash4eFRLGJH+1m/91mSCgDwiUSRB5ryIfkTWJBG1h05Y4UdeiKOE87/8y780mUQZDw4V+zt3w7GsoUN1wG+qDQIvBhKEKYSuqw1JEDpQoe/B+oYOewY5jFQsIs/RMVlUtQTBBm3xpRfDfmwbU1Jy70OPuGzSD9dmTJXshxX1l770pVGCACvqs11VMWifDV6wmym3sn0Y17KNYZD4uMc9rrG4ry3Pe97zmouLYDvG0CGDKIrZYg48+9nPHp0DQcRKb4na7+/DcyIVMsAdStZmnn3xi19ssCN527Qg5NZqrZGi70h0p221ZC4lCBNGx4D602cBauCJjAwY8Z1BMFlq0qZGMzwr9vbUFNITupGPJgK9CHzyk588uPjiiw+e8pSnVKGEzDKSioBgYy/RPZvbDAF3rTg4SUccfn/wB3+wa81brD366SJjjxpKKtT+IMt8ByBL+nYhFTK2NZI0+2SkVJ57UC0GykIVffazn21UxNRUfQX+7NmcFTe84Q03/vJUFUO4OT7gAQ9ozqYaiV8ShAnDQ8XAgKlPPCOCFv9XzwX4nuWZUCtBIKq16WagpAkDk48uhgDLanN2zA0RIbARkpTJW2BdjB0ORMskDlzr5iaLWazDRUU2UH3isnnU4yDo9sMf/vBJBGEIc+6OVKPmztjBYx64Qd/gBjeYfZNdYx7MqZMEyi39tre9bW81pCcIKFuAIVuFsXZMVTGoj5Eiac8cyYV6UsXQMToO/gc/+MFX2whDZHeNa1yjcV2xUYYhD2nDf/7nfzZW0TXi6Pe+972NePM//uM/xuZH/j4RWBwBN8uIZzB0A+JLzTuHtIzI2aEwpte0Tuj3ZU/cRTdH65MEDzma6ye++MAsXKFDioqhyxh1yqfCbkPyH1KBmuKdkCCMkYma+nbpGRI49jVDB7D+C9mPKE0lCBGLQp+tIR5HcjpYexGmfwgPhvYiKXp3DvZJEDpQ/sAHPtAYL3XdlAz6s571rMbQCRkwkKQGfL5FzaKjFX5zzDiLBIEUYiiW9y4tiGzL0ULAHP/3f//30Ru0wxSZECKcS6SNqsYimxjapjgmoTgMVMN4j2U/A76jWvQzgvXMIQjqEByJ9EA6bR4uNcW8CRH3UVMxkCD449DuKw5y7u+kcD/wAz9QA9nJZ9iAwF1h83GPe9yjWU9w5Fbflx3S896Ti+H+979/qhgmoV75sAGt9Y82GBgaUeUrXvGKk6K3sQXBIvwmN7nJTm6glTDlY3uMgEhwXB1rAyUhCoLCIMDPeMYzBkXG4f9OgrCrNggiKLJAryE7+zrMccCwQZgTB4G+/WY3u9mBv118avdGKhx7owvU2H64bxgzcCVJFom0r8AfqSZ9s9fXFsSC5KW8+VOJIel+rk7p54cKDzteJ7Vj1VdXShA6kOHjauOoEc2QIJj89K1XXnnlSYIwJoZloEh8e9QWTu0iyOcOF4GPfOQjjfjRIV5bbHjidrCbGZrfyAQiYX7P3aBq25bPdSNAvC3c75/8yZ9MhshBJaCU26zIgUjC2L5WfsS3zQVzoGYvndzAQ3yBiuE973lPE3G3r+j7i170osbY80d+5Ee22lo2CClBWAlyg+/AH5vUNkyMWoxymy2rbZHnEIWxg5+KgYiTv2qWRGDbCNj8beBdNgIf+tCHmsNAMY89++Uvf/ngx37sxxrD2rHYAUizuq2NMVXbtvt9HL/Hpfonf/LD7WMtAAALTklEQVQnJ3XdTZX/PiNT+9S1rnWt5n25GGoPu7g8xTya1IAdf5h6gXTsOte5Tm9LrRu2ZqQMU4j4El2fmi6g75spQehAhkvQQx/60KrN7V//9V+bxCSMnehbGXQJKjJW6PRudatbjT2Wv08EVkHA5q103Qh5K3zsYx9riIE57bBggPvqV7+6sdoeI87q9c7UFLWrdPSYV2qc3WRrvavA5R0JnoTXfuxjH3uVOfJzP/dzjRdDTYlIipHls+adfXmGGpqNxZAKDe4umy6SU40U5+DguyQIkU+oZr0mQZiAeJ8Xw4QqRh/F6v2hH8ySCGwbAd4zSC1y2y6R+lekRXPUBi+gV626wPuRIrr2nW33/zh8L7yunvjEJzb665pi7B7zmMcciKYZem4HjLrMg/PPP/9AyO2aEllC/T2FoNTUfdjPwID0bSjZnn6z20AmEK5tFWPFxk30xjGX5LE2pQShAyEuUDa2NV20bLwsUaVDzZIIbBsBIlKSrqFIcJu2yQbFQI104qgdDJticljvOZxIARzstSXc6MILon0Drb2Rep+qyRyofae2jYf9nGBS5vdQACRkCzkTTGmbEgTYCNAkXcCYqnsMxyQIHQhZTBIwTTHIGQO6/XtuZowhzzrrrKmv5vOJwGwEGFixlzHPly4OmFhDKUFYGt36+sKdk6GcYEnbLpG0CzmYe1Btu+1j36OC48orWmFfiRgUbBBcOr/+9a83tm1iIzDgZdPjjCGNYDTstu+P96jnIlaJENeh1nFpFXjqn//5nxvi9YQnPKEJly4X0Oc///mGiDzkIQ9p3ByXOMOSIHSM7te+9rXGhWXNSc1I0USo9Skem7D5+0RgCgLmHwOruZHWur5pY3NztNkd9UBEUzA/jGftMdxSzz777K1/PgLGhSv41huwwx8cw6T9e2sqbEmsrShBJLq6ugQ5T4LQQpZITrImPqRrShD4qX74wx8+OPfcc3d4GmfTjioCYVx77Wtfe/Eu2twYNbJvWJNkL97wI1ghWxDhfg8jpHtIMMA6Vxd+BIdmL7qUBKE1TBaUuPPS2ypYW1jhliGUg+Fh6LEJ+ln8Owy9ovoIWkLc5h1+xSxNEYUsicC2ESDSZH9wvetdb/FPm+tCvYpBv6Ydz+INP2IVxgFNpE20fRgl1AxJEA4D/fnfTILQgaFQyVQMDLnCxYtng8M/Dvr4dxjyWAiK/5M8hPSBmEcSpxAFee6a17xmo48SwCRDLc+fxFnDdAREgjMP15AgEIdyh/ubv/mbnYykOB2t/XzDXuTCI9CR6HuHUcZE6YfRpvxmPQJJEOqxyicTgSODgDgcgt8I8rV0QYIlOyNFOGrW60tjtWZ9IUFgMCqs9LZLSFdzDmwb+eW+lwRhOSyzpkRgbxC47LLLmihvrKBDKhZi4FCVxc/DB76rcw6BOABCreb5Cy+88ODMM89MgnCIMyIIgiRyLN23XXyfTVcaqm4b+eW+lwRhOSyzpkRgbxB45zvf2WQgPfXUUw8YLN7tbndroiZ+4xvfaFRpEWLZ4e+PgDC8e8Q3KG1tIhGPn/GMENJXxj/lJS95SRqnHeKMCIJw8cUXD7rjrdVE5JEhNne+NFZdC+V1602CsC6+WXsisJMIODwiHLLN2+2f3UzY0kSwnIiix67An0i842aITJA6sK+h647Y++GOxY4nxcuHN/xhH8UnXtCc0qBaq2JsSwlQ2FaVvwtJknfCpqD8fRgi+n1JBDxrzpgfSRAObx7M+XIShDno5buJQCKQCOwoAkECpRomAXJY+9ld73rXxoBUEeWP1xY1ABLx8pe//OBXf/VXm2A7ogUKCES6FMbXZfCjkC4hHsilZ+LfketD4rpI/LWjMGWzBhBIgpDTIxFIBBKBI4qAoDqlBKDspkP88ssvP3m4O/xvfetbH8jBIVqfWz8VErWSDI48Xr74xS82xAHpoErixsojS7RA5MBzJAZyfYjsJ59D6dV1RGE+st1KgnBkhzY7lggkAolAPwKlC+KQO2Ktq2K7vvhyqpn2dxYmQdjfscuWJwKJQCKQCCQCqyGQBGE1aLPiRCARSAQSgURgfxFIgrC/Y5ctTwQSgUQgEUgEVkMgCcJq0GbFiUAikAgkAonA/iKQBGF/xy5bnggkAolAIpAIrIZAEoTVoM2KE4FEIBFIBBKB/UUgCcL+jl22PBFIBBKBRCARWA2BJAirQZsVJwKJQCKQCCQC+4tAEoT9HbtseSKQCCQCiUAisBoCSRBWgzYrTgQSgUQgEUgE9heBJAj7O3bZ8kQgEUgEEoFEYDUEkiCsBm1WnAgkAolAIpAI7C8CSRD2d+yy5YlAIpAIJAKJwGoIJEFYDdqsOBFIBBKBRCAR2F8EkiDs79hlyxOBRCARSAQSgdUQSIKwGrRZcSKQCCQCiUAisL8IJEHY37HLlicCiUAikAgkAqshkARhNWiz4kQgEUgEEoFEYH8RSIKwv2OXLU8EEoFEIBFIBFZDIAnCatBmxYlAIpAIJAKJwP4ikARhf8cuW54IJAKJQCKQCKyGQBKE1aDNihOBRCARSAQSgf1FIAnC/o5dtjwRSAQSgUQgEVgNgSQIq0GbFScCiUAikAgkAvuLQBKE/R27bHkikAgkAolAIrAaAkkQVoM2K04EEoFEIBFIBPYXgSQI+zt22fJEIBFIBBKBRGA1BJIgrAZtVpwIJAKJQCKQCOwvAkkQ9nfssuWJQCKQCCQCicBqCCRBWA3arDgRSAQSgUQgEdhfBJIg7O/YZcsTgUQgEUgEEoHVEEiCsBq0WXEikAgkAolAIrC/CCRB2N+xy5YnAolAIpAIJAKrIZAEYTVos+JEIBFIBBKBRGB/EUiCsL9jly1PBBKBRCARSARWQyAJwmrQZsWJQCKQCCQCicD+IpAEYX/HLlueCCQCiUAikAishkAShNWgzYoTgUQgEUgEEoH9RSAJwv6OXbY8EUgEEoFEIBFYDYEkCKtBmxUnAolAIpAIJAL7i0AShP0du2x5IpAIJAKJQCKwGgJJEFaDNitOBBKBRCARSAT2F4EkCPs7dtnyRCARSAQSgURgNQSSIKwGbVacCCQCiUAikAjsLwJJEPZ37LLliUAikAgkAonAaggkQVgN2qw4EUgEEoFEIBHYXwSSIOzv2GXLE4FEIBFIBBKB1RBIgrAatFlxIpAIJAKJQCKwvwgkQdjfscuWJwKJQCKQCCQCqyGQBGE1aLPiRCARSAQSgURgfxFIgrC/Y5ctTwQSgUQgEUgEVkMgCcJq0GbFiUAikAgkAonA/iKQBGF/xy5bnggkAolAIpAIrIZAEoTVoM2KE4FEIBFIBBKB/UUgCcL+jl22PBFIBBKBRCARWA2BJAirQZsVJwKJQCKQCCQC+4tAEoT9HbtseSKQCCQCiUAisBoCSRBWgzYrTgQSgUQgEUgE9heBJAj7O3bZ8kQgEUgEEoFEYDUEkiCsBm1WnAgkAolAIpAI7C8CSRD2d+yy5YlAIpAIJAKJwGoIJEFYDdqsOBFIBBKBRCAR2F8EkiDs79hlyxOBRCARSAQSgdUQSIKwGrRZcSKQCCQCiUAisL8IJEHY37HLlicCiUAikAgkAqshkARhNWiz4kQgEUgEEoFEYH8RSIKwv2OXLU8EEoFEIBFIBFZDIAnCatBmxYlAIpAIJAKJwP4ikARhf8cuW54IJAKJQCKQCKyGQBKE1aDNihOBRCARSAQSgf1FIAnC/o5dtjwRSAQSgUQgEVgNgSQIq0GbFScCiUAikAgkAvuLQBKE/R27bHkikAgkAolAIrAaAkkQVoM2K04EEoFEIBFIBPYXgSQI+zt22fJEIBFIBBKBRGA1BJIgrAZtVpwIJAKJQCKQCOwvAv8P76o09oeGUHwAAAAASUVORK5CYII=;clipPath=inset(0% 0% 14.66% 0.33%);" vertex="1" parent="1">
          <mxGeometry x="50" y="-1180" width="730" height="483.4113712374582" as="geometry" />
        </mxCell>
      </root>
    </mxGraphModel>
  </diagram>
</mxfile>
